<?xml version="1.0" encoding="UTF-8"?>
<svg version="1.1" xmlns="http://www.w3.org/2000/svg" width="500" height="500">
<path d="M0 0 C0.7321875 -0.01289062 1.464375 -0.02578125 2.21875 -0.0390625 C6.52623361 1.21482828 8.98514823 4.77697145 11.24209595 8.49446106 C11.7662912 9.54792221 12.29048645 10.60138336 12.83056641 11.68676758 C13.12574158 12.2731752 13.42091675 12.85958282 13.72503662 13.46376038 C14.69365038 15.39430844 15.64774698 17.33163478 16.6015625 19.26953125 C17.28474837 20.64016681 17.96871379 22.01041404 18.65341187 23.3802948 C20.09004059 26.25971326 21.52001712 29.14230197 22.94482422 32.02758789 C24.73392107 35.65030888 26.53470278 39.2670458 28.33984756 42.88179207 C32.13979432 50.49234759 35.89710958 58.12265533 39.6192627 65.77154541 C40.83657107 68.27162136 42.06396593 70.76622759 43.3026123 73.25579834 C44.92014114 76.51796318 46.50716193 79.79316413 48.0859375 83.07421875 C48.55601227 84.00732376 49.02608704 84.94042877 49.51040649 85.90180969 C52.166923 91.53194867 52.74652257 95.28507534 51.77023315 101.43006897 C51.17741546 106.24514787 53.79987902 110.3016393 55.875 114.5 C56.48408203 115.88445312 56.48408203 115.88445312 57.10546875 117.296875 C59.97727453 123.28341878 62.14931038 125.26716392 68.31518555 127.46728516 C72.67884041 129.77954925 74.41092634 134.33783083 76.5 138.625 C77.11705811 139.85089844 77.11705811 139.85089844 77.74658203 141.1015625 C79.05454566 143.76020302 80.31112901 146.43927561 81.5625 149.125 C87.21814165 161.09039399 93.123084 172.9234095 99.0625 184.75 C104.89755444 196.37522774 110.70433485 208.00334416 116.25024414 219.77001953 C121.27176283 230.36068114 126.5779563 240.81102563 131.83551025 251.2857666 C137.22632564 262.02965596 142.55892814 272.78979084 147.69360352 283.65893555 C151.00049336 290.64072438 154.45728925 297.54072536 157.9375 304.4375 C163.23513019 314.96680189 168.27631248 325.5898305 173.15234375 336.3203125 C175.34716728 341.14414549 177.59112187 345.94103709 179.86972046 350.72584534 C181.46638157 354.08323933 183.04911781 357.44711375 184.6307373 360.81161499 C185.41329456 362.46768834 186.20187825 364.12092849 186.9967041 365.77114868 C188.11433883 368.09403008 189.20957364 370.42633095 190.30078125 372.76171875 C190.63968887 373.4523642 190.9785965 374.14300964 191.32777405 374.85458374 C193.46978172 379.51426341 193.81899459 382.66823732 192.5 387.625 C189.92339309 390.74405047 188.3455896 392.3431368 184.5 393.625 C181.68691363 393.73180095 178.89824026 393.78225953 176.0847168 393.78613281 C174.79641464 393.79358017 174.79641464 393.79358017 173.48208618 393.80117798 C170.63778891 393.81579526 167.79354743 393.82260105 164.94921875 393.828125 C162.97247821 393.83387702 160.9957377 393.83963474 159.01899719 393.84539795 C154.87211853 393.85590684 150.72525925 393.86175017 146.57836914 393.86523438 C141.26874336 393.87071743 135.95937423 393.89474196 130.64982891 393.92320633 C126.5654272 393.94184503 122.48108714 393.94703898 118.3966465 393.94857025 C116.4394573 393.95159475 114.48226913 393.95961645 112.52512169 393.97275543 C109.78437241 393.98984083 107.04424796 393.98792953 104.3034668 393.98144531 C103.49753586 393.9906601 102.69160492 393.99987488 101.86125183 394.0093689 C97.00814704 393.9734647 93.72394107 393.27227934 89.5 390.625 C88.08447266 388.81567383 88.08447266 388.81567383 87.1640625 386.83203125 C86.8542041 386.18983643 86.5443457 385.5476416 86.22509766 384.88598633 C85.86206543 384.07798584 85.4990332 383.26998535 85.125 382.4375 C83.92875 379.859375 82.7325 377.28125 81.5 374.625 C73.58 374.295 65.66 373.965 57.5 373.625 C58.49 375.935 59.48 378.245 60.5 380.625 C60.87366677 384.61304352 60.10884672 387.80620613 57.6875 391.0625 C54.32446941 393.46466471 51.25880545 393.74976662 47.19551945 393.75363445 C46.33720683 393.7568589 45.47889422 393.76008335 44.59457213 393.7634055 C43.65635176 393.7618569 42.71813139 393.7603083 41.7514801 393.75871277 C40.7511199 393.76097833 39.75075971 393.76324388 38.72008556 393.76557809 C35.35838199 393.77192282 31.99671868 393.77108842 28.63500977 393.77026367 C26.22876941 393.77325484 23.82252953 393.77665727 21.41629028 393.78044128 C15.5530308 393.78836959 9.6897808 393.79149609 3.82651705 393.79205366 C-0.93879277 393.7925288 -5.70409927 393.79458341 -10.46940804 393.79775429 C-23.97814327 393.80656028 -37.48687056 393.81117369 -50.99560868 393.81042381 C-51.72384737 393.81038386 -52.45208605 393.8103439 -53.20239258 393.81030273 C-53.93151964 393.81026185 -54.6606467 393.81022097 -55.41186852 393.81017885 C-67.2322937 393.80977227 -79.05268704 393.81934494 -90.87310302 393.8334411 C-103.00845923 393.84779874 -115.14379992 393.85471164 -127.27916485 393.85384732 C-134.09299347 393.85351517 -140.90678869 393.85627041 -147.72060966 393.86702538 C-154.12684966 393.87707221 -160.53303728 393.8768013 -166.93928146 393.86950874 C-169.29313192 393.86846009 -171.64698672 393.87084233 -174.0008297 393.8768692 C-177.20880255 393.88455233 -180.41652915 393.87996868 -183.62449646 393.87223816 C-184.56048611 393.87738172 -185.49647575 393.88252529 -186.46082872 393.88782471 C-191.75478411 393.85954589 -195.75596375 393.4870246 -200.25 390.4375 C-202.18525267 387.63138363 -202.65576612 384.96553109 -202.5 381.625 C-201.35451091 378.01912941 -199.66106668 374.7360275 -197.9375 371.375 C-197.4437085 370.37847412 -196.94991699 369.38194824 -196.44116211 368.35522461 C-194.81741807 365.09942514 -193.16372059 361.86054134 -191.5 358.625 C-190.65550293 356.98072021 -190.65550293 356.98072021 -189.79394531 355.30322266 C-187.47101384 350.79357693 -185.13951336 346.28873951 -182.78515625 341.79541016 C-179.82636423 336.14688111 -176.91746026 330.48292716 -174.1171875 324.75390625 C-173.58085693 323.65941162 -173.04452637 322.56491699 -172.49194336 321.43725586 C-171.48405946 319.37067439 -170.48434962 317.30007845 -169.49438477 315.22485352 C-164.2558963 304.50294815 -164.2558963 304.50294815 -158.5 301.625 C-155.87372867 301.53832745 -153.27437517 301.50939865 -150.6484375 301.52734375 C-149.87440582 301.5287587 -149.10037415 301.53017365 -148.30288696 301.53163147 C-145.82688558 301.53723597 -143.35097412 301.54978917 -140.875 301.5625 C-139.19791797 301.56751442 -137.52083453 301.57207743 -135.84375 301.57617188 C-131.72913194 301.58720685 -127.61458122 301.60447446 -123.5 301.625 C-122.51 298.325 -121.52 295.025 -120.5 291.625 C-122.03011719 291.65980469 -123.56023437 291.69460938 -125.13671875 291.73046875 C-127.15363484 291.75861177 -129.17056282 291.78591137 -131.1875 291.8125 C-132.69860352 291.85020508 -132.69860352 291.85020508 -134.24023438 291.88867188 C-143.79458366 291.98326939 -143.79458366 291.98326939 -147.5 288.625 C-150.20772193 284.17403881 -149.67132662 280.55482583 -148.5 275.625 C-147.18850228 272.30098128 -145.49266442 269.24069918 -143.75 266.125 C-142.65239402 264.09252295 -141.55757369 262.05854023 -140.46484375 260.0234375 C-139.84335449 258.87198242 -139.22186523 257.72052734 -138.58154297 256.53417969 C-134.83977129 249.54734168 -131.27060165 242.46944258 -127.66946411 235.40948486 C-125.38776548 230.93763265 -123.09994027 226.46891721 -120.8125 222 C-120.13478294 220.67556381 -120.13478294 220.67556381 -119.44337463 219.32437134 C-115.2470644 211.12569897 -111.03325894 202.93610734 -106.8125 194.75 C-106.47069702 194.08701904 -106.12889404 193.42403809 -105.7767334 192.7409668 C-104.39780862 190.06634364 -103.0188706 187.39172732 -101.63983154 184.71716309 C-95.71266364 173.22029355 -89.80149307 161.71518346 -83.88711548 150.21173096 C-81.29307923 145.16660441 -78.69762832 140.12220744 -76.1015625 135.078125 C-74.63009543 132.21880808 -73.15874576 129.35943079 -71.6875 126.5 C-71.32217163 125.78996826 -70.95684326 125.07993652 -70.58044434 124.34838867 C-64.76221616 113.03874887 -58.96221609 101.71984262 -53.16775513 90.39801025 C-46.13545423 76.65771552 -39.09970681 62.91954698 -31.98217773 49.22314453 C-29.00693552 43.49411162 -26.05336095 37.75608446 -23.14245605 31.99414062 C-21.60134355 28.94515499 -20.05319136 25.89976644 -18.50476074 22.85449219 C-17.7604121 21.38557987 -17.01951856 19.91491084 -16.28234863 18.44238281 C-15.25688656 16.3945215 -14.21954875 14.35307853 -13.1796875 12.3125 C-12.29385986 10.55486328 -12.29385986 10.55486328 -11.39013672 8.76171875 C-8.60542554 4.14043624 -5.77294177 -0.1016363 0 0 Z M-1.5 6.625 C-7.93345019 13.43815271 -11.66585901 23.65686746 -15.75 32 C-17.16845103 34.88450984 -18.59067195 37.76713437 -20.015625 40.6484375 C-20.37681931 41.37914459 -20.73801361 42.10985168 -21.1101532 42.86270142 C-24.17818905 49.03972014 -27.37876874 55.14176793 -30.60658264 61.2364502 C-35.23604887 69.98817869 -39.73086449 78.80752394 -44.22494507 87.6293335 C-46.75116521 92.58773567 -49.28168751 97.54394058 -51.8125 102.5 C-52.30940842 103.47315155 -52.80631683 104.4463031 -53.31828308 105.44894409 C-57.25032304 113.14536984 -61.20868831 120.82765201 -65.1875 128.5 C-70.94825592 139.60893568 -76.66868586 150.73802346 -82.375 161.875 C-88.88725505 174.58480744 -95.41233755 187.28780546 -101.95877075 199.9800415 C-106.25369181 208.30821477 -110.53630523 216.6425654 -114.8046875 224.984375 C-115.25828644 225.87067596 -115.71188538 226.75697693 -116.17922974 227.6701355 C-118.45751097 232.12237192 -120.73413111 236.57544717 -123.00830078 241.02978516 C-126.79152899 248.43356442 -130.58236457 255.8303211 -134.5 263.1640625 C-135.07129639 264.23769043 -135.64259277 265.31131836 -136.23120117 266.41748047 C-137.24558362 268.31469044 -138.26845822 270.2073984 -139.30200195 272.09423828 C-139.73472412 272.9036084 -140.16744629 273.71297852 -140.61328125 274.546875 C-140.98235596 275.22331055 -141.35143066 275.89974609 -141.73168945 276.59667969 C-142.66556887 279.06209762 -142.70448965 281.00952476 -142.5 283.625 C-141.44049948 284.90926897 -141.44049948 284.90926897 -138.99975586 284.73852539 C-137.37372437 284.73067017 -137.37372437 284.73067017 -135.71484375 284.72265625 C-134.54501953 284.71943359 -133.37519531 284.71621094 -132.16992188 284.71289062 C-130.93822266 284.70451172 -129.70652344 284.69613281 -128.4375 284.6875 C-127.20193359 284.68298828 -125.96636719 284.67847656 -124.69335938 284.67382812 C-121.62885883 284.66199608 -118.56445279 284.64551173 -115.5 284.625 C-108.97783568 272.87239312 -102.59717824 261.07519028 -96.68237305 249.00341797 C-93.40441276 242.33742396 -89.95597995 235.76895428 -86.4859314 229.20173645 C-81.74438639 220.21676946 -77.12040262 211.17268685 -72.5 202.125 C-67.13778822 191.62470013 -61.73819267 181.14783274 -56.23187256 170.72229004 C-52.09075099 162.87133365 -48.03987143 154.9752004 -44.00048828 147.0715332 C-41.82065164 142.80676494 -39.63700853 138.54394704 -37.453125 134.28125 C-37.02237671 133.4404187 -36.59162842 132.5995874 -36.14782715 131.73327637 C-32.62074857 124.85223774 -29.06742201 117.98522064 -25.5 111.125 C-21.52900345 103.48759869 -17.57887065 95.84002832 -13.65234375 88.1796875 C-13.2269783 87.34994415 -12.80161285 86.52020081 -12.36335754 85.66531372 C-10.19204733 81.42834152 -8.02346317 77.18999874 -5.85864258 72.94970703 C-2.06127225 65.51858997 1.75383782 58.10171172 5.703125 50.75 C6.32050537 49.59322754 6.93788574 48.43645508 7.57397461 47.24462891 C8.69811455 45.14663427 9.8336128 43.05466893 10.98266602 40.97021484 C11.46920654 40.05965332 11.95574707 39.1490918 12.45703125 38.2109375 C12.87960205 37.4379834 13.30217285 36.6650293 13.73754883 35.86865234 C15.69886274 30.09712662 11.5755225 24.1181799 9.125 19 C8.72539062 18.14148438 8.32578125 17.28296875 7.9140625 16.3984375 C7.32625 15.1609375 7.32625 15.1609375 6.7265625 13.8984375 C6.19409912 12.77574463 6.19409912 12.77574463 5.65087891 11.63037109 C4.45642561 9.54907296 3.37724086 8.11980706 1.5 6.625 C0.51 6.625 -0.48 6.625 -1.5 6.625 Z M147.5 300.625 C148.5 302.625 148.5 302.625 148.5 302.625 Z M148.5 302.625 C149.5 304.625 149.5 304.625 149.5 304.625 Z M149.5 304.625 C150.5 306.625 150.5 306.625 150.5 306.625 Z M150.5 306.625 C151.5 308.625 151.5 308.625 151.5 308.625 Z M-160.10400391 312.05371094 C-160.92812743 313.5638568 -161.72567209 315.08872646 -162.5 316.625 C-162.91065201 317.39110596 -163.32130402 318.15721191 -163.74440002 318.9465332 C-165.08321584 321.4651049 -166.3790505 324.00242692 -167.66796875 326.546875 C-168.14768631 327.48694397 -168.62740387 328.42701294 -169.12165833 329.39556885 C-170.64701076 332.386992 -172.1672479 335.38098224 -173.6875 338.375 C-174.68783473 340.33740086 -175.68848343 342.2996417 -176.68945312 344.26171875 C-178.66636992 348.13841895 -180.63377893 352.0197438 -182.59521484 355.90429688 C-184.53397732 359.73980808 -186.5056246 363.55573959 -188.50244141 367.36132812 C-189.20981194 368.72744232 -189.20981194 368.72744232 -189.93147278 370.12115479 C-190.8209727 371.83899711 -191.72103845 373.5514243 -192.63334656 375.25726318 C-193.02673721 376.02346985 -193.42012787 376.78967651 -193.82543945 377.57910156 C-194.3489373 378.57469086 -194.3489373 378.57469086 -194.88301086 379.59039307 C-195.67806416 382.21219116 -195.0985181 383.98800294 -194.5 386.625 C-163.05068285 386.64778979 -131.60136804 386.66549788 -100.15204457 386.67606533 C-96.44307853 386.67731611 -92.7341125 386.67861042 -89.02514648 386.67993164 C-87.91751718 386.68032511 -87.91751718 386.68032511 -86.78751152 386.68072652 C-74.81541081 386.68508334 -62.84331489 386.69297095 -50.87121702 386.7021528 C-38.59588779 386.71148901 -26.32056106 386.71705554 -14.04522842 386.71908849 C-6.46459392 386.72046379 1.11602708 386.72481473 8.69665743 386.73291647 C14.49968485 386.73880422 20.30270527 386.73945905 26.10573578 386.73810768 C28.49351396 386.73838421 30.88129262 386.74039188 33.26906776 386.74420547 C36.51362125 386.74913597 39.75811561 386.74800068 43.00267029 386.74525452 C43.96082168 386.74816736 44.91897306 386.7510802 45.90615934 386.75408131 C50.02820433 387.16778562 50.02820433 387.16778562 53.5 385.625 C53.13642815 380.89856596 52.62257195 377.26841925 49.5 373.625 C46.53419638 373.12492249 44.13636578 372.97022528 41.16682434 373.02372742 C40.30671507 373.01945529 39.4466058 373.01518317 38.56043261 373.01078159 C35.66712512 373.00252015 32.77525485 373.03008821 29.88208008 373.05737305 C27.81269871 373.05878284 25.74331484 373.05799289 23.67393494 373.05516052 C18.04597518 373.05372228 12.41854512 373.08317846 6.79070878 373.11803031 C0.91304581 373.14922566 -4.96462847 373.15221916 -10.84236145 373.15815735 C-21.97715915 373.17371585 -33.11171224 373.21477159 -44.24640208 373.2649048 C-56.92092392 373.32073576 -69.59545726 373.34826906 -82.27007139 373.37338197 C-108.34685002 373.42568558 -134.42341133 373.51366694 -160.5 373.625 C-159.96301483 372.55143753 -159.42602966 371.47787506 -158.87277222 370.3717804 C-158.15459822 368.93576241 -157.43642827 367.49974241 -156.71826172 366.0637207 C-156.36595993 365.3594117 -156.01365814 364.65510269 -155.65068054 363.92945099 C-153.43099219 359.49079346 -151.21697342 355.04937532 -149.0078125 350.60546875 C-147.88061774 348.340942 -146.75300983 346.07662086 -145.625 343.8125 C-145.32962341 343.21947083 -145.03424683 342.62644165 -144.72991943 342.01544189 C-140.39481149 333.31993231 -135.96919313 324.67904385 -131.34423828 316.13354492 C-129.24407156 312.58068854 -129.24407156 312.58068854 -128.5 308.625 C-132.53787195 308.42652251 -136.5738422 308.28176486 -140.61547852 308.18554688 C-141.9883775 308.14542917 -143.36093698 308.09091414 -144.73266602 308.02148438 C-146.70958331 307.92396506 -148.68904143 307.88322985 -150.66796875 307.84375 C-152.45110474 307.7809082 -152.45110474 307.7809082 -154.27026367 307.71679688 C-157.84631591 308.72238417 -158.194981 309.08561649 -160.10400391 312.05371094 Z M151.5 308.625 C152.5 310.625 152.5 310.625 152.5 310.625 Z M152.5 310.625 C153.10355408 314.47525879 154.26772603 317.48601159 156.0625 320.9375 C156.74505859 322.26201172 156.74505859 322.26201172 157.44140625 323.61328125 C157.79074219 324.27714844 158.14007813 324.94101562 158.5 325.625 C159.86915789 322.61180243 159.86915789 322.61180243 158.28515625 319.70703125 C157.43244141 318.08861328 157.43244141 318.08861328 156.5625 316.4375 C155.99660156 315.35082031 155.43070312 314.26414062 154.84765625 313.14453125 C154.40292969 312.31308594 153.95820313 311.48164063 153.5 310.625 C153.17 310.625 152.84 310.625 152.5 310.625 Z M159.5 325.625 C160.5 327.625 160.5 327.625 160.5 327.625 Z M161.5 329.625 C162.5 331.625 162.5 331.625 162.5 331.625 Z M162.5 331.625 C163.5 333.625 163.5 333.625 163.5 333.625 Z M163.5 333.625 C164.5 335.625 164.5 335.625 164.5 335.625 Z M164.5 335.625 C165.5 337.625 165.5 337.625 165.5 337.625 Z M90.5 373.625 C90.17 374.285 89.84 374.945 89.5 375.625 C91.48 379.255 93.46 382.885 95.5 386.625 C125.2 386.625 154.9 386.625 185.5 386.625 C187.17241115 380.92335358 187.17241115 380.92335358 182.5 373.625 C152.14 373.625 121.78 373.625 90.5 373.625 Z " fill="#0397B1" transform="translate(252.5,53.375)"/>
<path d="M0 0 C3.75781812 1.50404456 4.64953246 4.18307018 6.20581055 7.69311523 C6.89913463 9.16486056 7.59370465 10.63601938 8.28930664 12.10668945 C8.6595697 12.9033905 9.02983276 13.70009155 9.41131592 14.52093506 C11.52934591 19.00955824 13.78830721 23.42742362 16.02612305 27.85717773 C16.99882287 29.79628258 17.9708175 31.73574131 18.94213867 33.67553711 C20.42141327 36.62800276 21.90124476 39.58017946 23.38330078 42.53125 C29.25567579 54.22609315 35.02580132 65.96051942 40.64656067 77.77845764 C44.49341034 85.85399154 48.46631668 93.86079366 52.49438477 101.84716797 C58.41425735 113.588902 64.26129691 125.35737103 69.87915039 137.24731445 C72.01620906 141.76205001 74.19421608 146.2489909 76.4519043 150.70483398 C76.91725586 151.62329102 77.38260742 152.54174805 77.86206055 153.48803711 C78.74187788 155.21615969 79.62692269 156.94163548 80.51831055 158.66381836 C80.90889648 159.43016602 81.29948242 160.19651367 81.7019043 160.98608398 C82.04560059 161.65140137 82.38929688 162.31671875 82.7434082 163.00219727 C83.6003418 165.04077148 83.6003418 165.04077148 84.05322266 167.42626953 C84.70457008 170.5388441 85.87525683 173.06206307 87.25268555 175.92749023 C87.7818457 177.0302832 88.31100586 178.13307617 88.85620117 179.26928711 C89.41114258 180.41075195 89.96608398 181.5522168 90.5378418 182.72827148 C91.08891602 183.88133789 91.63999023 185.0344043 92.20776367 186.22241211 C94.80533517 192.04007972 94.80533517 192.04007972 98.6003418 197.04077148 C99.16917452 199.10121002 99.54889863 201.1626349 99.94018555 203.26342773 C100.15803711 203.84995117 100.37588867 204.43647461 100.6003418 205.04077148 C101.5903418 205.37077148 102.5803418 205.70077148 103.6003418 206.04077148 C104.63549805 208.02514648 104.63549805 208.02514648 105.6628418 210.79077148 C108.5076758 218.04334213 111.88292922 225.00504111 115.29785156 232.00463867 C115.72380615 232.88539063 116.14976074 233.76614258 116.58862305 234.67358398 C116.97574463 235.46651855 117.36286621 236.25945312 117.76171875 237.07641602 C118.6003418 239.04077148 118.6003418 239.04077148 118.6003418 241.04077148 C87.9103418 241.37077148 57.2203418 241.70077148 25.6003418 242.04077148 C20.81898602 232.47805992 16.04528407 222.92444087 11.4128418 213.29077148 C10.58393433 211.5680603 10.58393433 211.5680603 9.73828125 209.81054688 C5.31127573 200.58098332 0.98269058 191.30786045 -3.3125 182.01635742 C-7.63382211 172.67163524 -12.00837632 163.35280188 -16.3996582 154.04077148 C-20.26914956 145.83423437 -24.13671866 137.62706468 -27.9543457 129.39624023 C-28.234888 128.79140305 -28.5154303 128.18656586 -28.80447388 127.56340027 C-30.15858674 124.64188313 -31.50941395 121.71888556 -32.85717773 118.79443359 C-35.33204521 113.43613789 -37.84341281 108.10387273 -40.4621582 102.81420898 C-40.9379834 101.84588135 -41.41380859 100.87755371 -41.90405273 99.87988281 C-42.78891081 98.08731228 -43.68495902 96.30020213 -44.59448242 94.52001953 C-44.9813623 93.73409424 -45.36824219 92.94816895 -45.7668457 92.13842773 C-46.27900635 91.12534546 -46.27900635 91.12534546 -46.80151367 90.09179688 C-48.11752281 85.57922841 -45.96132889 81.82538981 -43.87231445 77.87670898 C-43.33638672 76.85448242 -42.80045898 75.83225586 -42.24829102 74.77905273 C-41.65886719 73.66916992 -41.06944336 72.55928711 -40.4621582 71.41577148 C-39.51752245 69.61959596 -38.57527216 67.82218134 -37.63308716 66.02471924 C-36.96101058 64.7428912 -36.28820172 63.46144688 -35.61471558 62.18035889 C-31.79907854 54.91688918 -28.05866587 47.61506582 -24.31564331 40.31399536 C-19.03666356 30.02200901 -13.75386329 19.73135062 -8.3996582 9.47827148 C-8.00875 8.72352539 -7.6178418 7.9687793 -7.21508789 7.19116211 C-3.47051326 0.05896589 -3.47051326 0.05896589 0 0 Z " fill="#0195B0" transform="translate(316.399658203125,185.959228515625)"/>
<path d="M0 0 C2.85980529 2.50073613 4.29123454 5.22303909 5.96875 8.609375 C6.53489014 9.74616699 7.10103027 10.88295898 7.68432617 12.05419922 C8.28978369 13.28601836 8.89500318 14.51795452 9.5 15.75 C10.12375532 17.0094505 10.74786358 18.26872625 11.37231445 19.52783203 C16.67261679 30.23911053 21.87541806 40.999765 26.94287109 51.82324219 C27.84126588 53.67314703 28.84227175 55.47265124 29.86328125 57.2578125 C31.48933645 61.18046113 30.80557754 64.04228508 29.19847107 67.94787598 C28.1340854 70.21130652 27.01732115 72.44085034 25.87890625 74.66796875 C25.46011703 75.50225906 25.04132782 76.33654938 24.60984802 77.19612122 C23.26818766 79.86374827 21.91535648 82.52553673 20.5625 85.1875 C19.6874552 86.92608224 18.8131002 88.66501185 17.93945312 90.40429688 C13.71721571 98.78879031 9.42257962 107.13070442 5.02734375 115.42578125 C-0.4983201 125.85942215 -5.75112781 136.42512033 -11 147 C-16.66189323 158.40699132 -22.36813332 169.77718687 -28.33508301 181.02807617 C-32.45627667 188.81777364 -36.38903468 196.69734792 -40.30490112 204.59176636 C-48.2300186 220.56160358 -56.15196934 236.51594635 -65 252 C-86.12 252 -107.24 252 -129 252 C-128.10528705 247.52643525 -126.79710791 244.26133432 -124.7109375 240.3125 C-124.37603302 239.66639771 -124.04112854 239.02029541 -123.69607544 238.35461426 C-122.59483553 236.2333432 -121.48491994 234.11674034 -120.375 232 C-119.59899132 230.50878501 -118.82360901 229.01724391 -118.04882812 227.52539062 C-116.46497001 224.47756314 -114.87791902 221.43143368 -113.28808594 218.38671875 C-110.00693578 212.10067531 -106.75469227 205.79977372 -103.5 199.5 C-102.58408184 197.73037606 -101.66816287 195.96075252 -100.75212097 194.19119263 C-96.62672827 186.22072037 -92.51861049 178.24139916 -88.41189575 170.2612915 C-83.32103992 160.368992 -78.22162365 150.48193551 -73.0625 140.625 C-67.26504695 129.5470385 -61.55248687 118.42591196 -55.83959961 107.30419922 C-51.11704397 98.11128924 -46.37959148 88.92639405 -41.625 79.75 C-36.11494679 69.11346221 -30.64113915 58.45867538 -25.17977905 47.79705811 C-18.91211346 35.5619533 -12.64151562 23.32851089 -6.3125 11.125 C-5.77802246 10.09149414 -5.24354492 9.05798828 -4.69287109 7.99316406 C-3.97284912 6.60822754 -3.97284912 6.60822754 -3.23828125 5.1953125 C-2.6201355 4.00446045 -2.6201355 4.00446045 -1.98950195 2.78955078 C-1 1 -1 1 0 0 Z " fill="#0196B1" transform="translate(267,86)"/>
<path d="M0 0 C48.51 0 97.02 0 147 0 C170.5 47 170.5 47 178 65 C108.7 65 39.4 65 -32 65 C-30.10664167 59.31992501 -28.60884663 54.84498569 -25.91796875 49.7265625 C-25.31404297 48.56898438 -24.71011719 47.41140625 -24.08789062 46.21875 C-23.4546705 45.02070465 -22.821209 43.82278683 -22.1875 42.625 C-20.97246863 40.30478574 -19.7576351 37.98446787 -18.54296875 35.6640625 C-17.04378906 32.80492187 -15.54460937 29.94578125 -14 27 C-9.38 18.09 -4.76 9.18 0 0 Z " fill="#0196B1" transform="translate(124,362)"/>
<path d="M0 0 C0.7321875 -0.01289062 1.464375 -0.02578125 2.21875 -0.0390625 C6.52623361 1.21482828 8.98514823 4.77697145 11.24209595 8.49446106 C11.7662912 9.54792221 12.29048645 10.60138336 12.83056641 11.68676758 C13.12574158 12.2731752 13.42091675 12.85958282 13.72503662 13.46376038 C14.69365038 15.39430844 15.64774698 17.33163478 16.6015625 19.26953125 C17.28474837 20.64016681 17.96871379 22.01041404 18.65341187 23.3802948 C20.09004059 26.25971326 21.52001712 29.14230197 22.94482422 32.02758789 C24.73391603 35.65029869 26.53469263 39.26702545 28.33983231 42.88176155 C32.13832177 50.48939825 35.89413132 58.11680569 39.61486816 65.76275635 C40.83890014 68.27656078 42.07322077 70.78479243 43.31872559 73.2880249 C44.95173222 76.58110299 46.55422782 79.88722566 48.1484375 83.19921875 C48.62689117 84.14908157 49.10534485 85.0989444 49.59829712 86.07759094 C51.60084408 90.31988382 52.97602025 93.36249198 51.88354492 98.04052734 C49.80310343 103.43051182 49.80310343 103.43051182 48.71484375 105.40234375 C48.35825684 106.06258545 48.00166992 106.72282715 47.63427734 107.40307617 C47.23934082 108.11568604 46.8444043 108.8282959 46.4375 109.5625 C45.53076544 111.24382936 44.62597184 112.92620629 43.72265625 114.609375 C43.21492676 115.55232422 42.70719727 116.49527344 42.18408203 117.46679688 C38.85173136 123.71604133 35.61708324 130.01608875 32.375 136.3125 C32.01404236 137.01263214 31.65308472 137.71276428 31.28118896 138.43411255 C25.4435152 149.76204493 19.71810288 161.14330247 14.04122925 172.55252075 C9.89310043 180.88699785 5.67921896 189.17671331 1.29516602 197.39013672 C-2.60403695 204.73448699 -6.29697379 212.18059555 -10 219.625 C-14.4202827 228.51134601 -18.88004251 237.36625738 -23.57104492 246.11376953 C-26.31357602 251.26708758 -28.92060426 256.47877235 -31.4921875 261.71875 C-32.21098463 263.17791401 -32.92981629 264.63706101 -33.64868164 266.09619141 C-35.07059933 268.98376215 -36.47891371 271.87747533 -37.88061523 274.77490234 C-38.54101868 276.11840269 -39.2018874 277.46167445 -39.86328125 278.8046875 C-40.15568695 279.41848267 -40.44809265 280.03227783 -40.74935913 280.66467285 C-42.76583758 284.72258461 -45.08098545 287.65622186 -48.5 290.625 C-52.38261605 291.91920535 -56.0676188 291.78069698 -60.11474609 291.78613281 C-60.99472763 291.79109772 -61.87470917 291.79606262 -62.78135681 291.80117798 C-65.69539163 291.81579516 -68.60937203 291.82260059 -71.5234375 291.828125 C-73.54741416 291.83387647 -75.57139081 291.8396342 -77.59536743 291.84539795 C-81.8405991 291.85590643 -86.08581184 291.86175022 -90.33105469 291.86523438 C-95.7708125 291.87072118 -101.21032027 291.8947539 -106.64999962 291.92320633 C-110.8312961 291.94182867 -115.01253228 291.94703808 -119.19386673 291.94857025 C-121.19933058 291.95159782 -123.20479334 291.95962984 -125.21021652 291.97275543 C-128.01582636 291.98980863 -130.82082422 291.98793752 -133.62646484 291.98144531 C-134.45469254 291.9906601 -135.28292023 291.99987488 -136.13624573 292.0093689 C-140.75493989 291.97588628 -143.73288509 291.59412947 -147.5 288.625 C-149.95760819 285.02876681 -149.67266502 282.23144558 -149.08007812 278.06640625 C-148.04249763 273.69948498 -145.92846687 270.01986774 -143.75 266.125 C-142.65239402 264.09252295 -141.55757369 262.05854023 -140.46484375 260.0234375 C-139.84335449 258.87198242 -139.22186523 257.72052734 -138.58154297 256.53417969 C-134.83977129 249.54734168 -131.27060165 242.46944258 -127.66946411 235.40948486 C-125.38776548 230.93763265 -123.09994027 226.46891721 -120.8125 222 C-120.36068863 221.11704254 -119.90887726 220.23408508 -119.44337463 219.32437134 C-115.2470644 211.12569897 -111.03325894 202.93610734 -106.8125 194.75 C-106.47069702 194.08701904 -106.12889404 193.42403809 -105.7767334 192.7409668 C-104.39780862 190.06634364 -103.0188706 187.39172732 -101.63983154 184.71716309 C-95.71266364 173.22029355 -89.80149307 161.71518346 -83.88711548 150.21173096 C-81.29307923 145.16660441 -78.69762832 140.12220744 -76.1015625 135.078125 C-74.63009543 132.21880808 -73.15874576 129.35943079 -71.6875 126.5 C-71.32217163 125.78996826 -70.95684326 125.07993652 -70.58044434 124.34838867 C-64.76221616 113.03874887 -58.96221609 101.71984262 -53.16775513 90.39801025 C-46.13545423 76.65771552 -39.09970681 62.91954698 -31.98217773 49.22314453 C-29.00693552 43.49411162 -26.05336095 37.75608446 -23.14245605 31.99414062 C-21.60134355 28.94515499 -20.05319136 25.89976644 -18.50476074 22.85449219 C-17.7604121 21.38557987 -17.01951856 19.91491084 -16.28234863 18.44238281 C-15.25688656 16.3945215 -14.21954875 14.35307853 -13.1796875 12.3125 C-12.29385986 10.55486328 -12.29385986 10.55486328 -11.39013672 8.76171875 C-8.60542554 4.14043624 -5.77294177 -0.1016363 0 0 Z M-1.5 6.625 C-7.93345019 13.43815271 -11.66585901 23.65686746 -15.75 32 C-17.16845103 34.88450984 -18.59067195 37.76713437 -20.015625 40.6484375 C-20.37681931 41.37914459 -20.73801361 42.10985168 -21.1101532 42.86270142 C-24.17818905 49.03972014 -27.37876874 55.14176793 -30.60658264 61.2364502 C-35.23604887 69.98817869 -39.73086449 78.80752394 -44.22494507 87.6293335 C-46.75116521 92.58773567 -49.28168751 97.54394058 -51.8125 102.5 C-52.30940842 103.47315155 -52.80631683 104.4463031 -53.31828308 105.44894409 C-57.25032304 113.14536984 -61.20868831 120.82765201 -65.1875 128.5 C-70.94825592 139.60893568 -76.66868586 150.73802346 -82.375 161.875 C-88.88725505 174.58480744 -95.41233755 187.28780546 -101.95877075 199.9800415 C-106.25369181 208.30821477 -110.53630523 216.6425654 -114.8046875 224.984375 C-115.25828644 225.87067596 -115.71188538 226.75697693 -116.17922974 227.6701355 C-118.45751097 232.12237192 -120.73413111 236.57544717 -123.00830078 241.02978516 C-126.79152899 248.43356442 -130.58236457 255.8303211 -134.5 263.1640625 C-135.07129639 264.23769043 -135.64259277 265.31131836 -136.23120117 266.41748047 C-137.24558362 268.31469044 -138.26845822 270.2073984 -139.30200195 272.09423828 C-139.73472412 272.9036084 -140.16744629 273.71297852 -140.61328125 274.546875 C-140.98235596 275.22331055 -141.35143066 275.89974609 -141.73168945 276.59667969 C-142.66556887 279.06209762 -142.70448965 281.00952476 -142.5 283.625 C-140.655281 285.469719 -138.05483588 284.7450219 -135.6006012 284.74942017 C-134.75327927 284.74582489 -133.90595734 284.74222961 -133.03295898 284.73852539 C-132.14523804 284.73867142 -131.25751709 284.73881744 -130.34289551 284.7389679 C-127.39393716 284.73826843 -124.44504113 284.73047448 -121.49609375 284.72265625 C-119.45728083 284.72079219 -117.41846746 284.71936823 -115.37965393 284.71836853 C-110.00215426 284.71454241 -104.62468142 284.70471132 -99.24719238 284.69366455 C-93.76440799 284.68345245 -88.28161928 284.67887134 -82.79882812 284.67382812 C-72.03254027 284.66308914 -61.26627236 284.64601159 -50.5 284.625 C-48.90941237 281.60433975 -47.31906584 278.58355263 -45.72875977 275.56274414 C-45.28247475 274.71521828 -44.83618973 273.86769241 -44.37638092 272.99448395 C-40.70909392 266.02797305 -37.05868931 259.05311336 -33.4375 252.0625 C-33.13139801 251.47180725 -32.82529602 250.8811145 -32.50991821 250.27252197 C-26.75764817 239.16154959 -21.15617636 227.97765437 -15.58099365 216.77700806 C-11.30525657 208.18925851 -6.98112623 199.64078726 -2.45581055 191.18115234 C2.44648415 181.94909371 7.04629388 172.56180772 11.70474243 163.20526123 C15.93173341 154.71851441 20.15787087 146.23875743 24.625 137.875 C28.82953254 129.94929063 32.98405648 121.99770797 37.06268311 114.00646973 C37.80648614 112.5556724 38.55595604 111.10776503 39.31134033 109.66296387 C40.37269679 107.63045356 41.41299661 105.58838225 42.44921875 103.54296875 C42.77257706 102.93436508 43.09593536 102.32576141 43.42909241 101.69871521 C45.47241938 97.59376856 45.73987353 95.02627929 44.5 90.625 C43.46002706 88.28577319 42.38348696 86.06766361 41.1875 83.8125 C40.44825643 82.37876945 39.7114343 80.94378875 38.9765625 79.5078125 C38.57598633 78.72567383 38.17541016 77.94353516 37.76269531 77.13769531 C35.95181133 73.53413422 34.23382361 69.88853026 32.5090332 66.24316406 C25.41251513 51.25244335 17.83770157 36.52369213 10.1815033 21.81318665 C8.45424456 18.48975492 6.76570029 15.15207304 5.125 11.78515625 C3.70320901 8.62455518 3.70320901 8.62455518 1.5 6.625 C0.51 6.625 -0.48 6.625 -1.5 6.625 Z " fill="#FAFCFB" transform="translate(252.5,53.375)"/>
<path d="M0 0 C7.19517194 4.02275116 10.77331108 15.58092691 14.08959961 22.66088867 C15.31234478 25.24016289 16.54199042 27.81611119 17.77319336 30.39135742 C18.10009659 31.07595032 18.42699982 31.76054321 18.7638092 32.46588135 C23.10651138 41.52784337 27.64007833 50.49494644 32.15209961 59.47338867 C37.76301436 70.64821235 43.3306021 81.83246353 48.66455078 93.14282227 C53.70459595 103.76600001 59.02553258 114.25050456 64.29983521 124.75860596 C69.6907421 135.50267855 75.02344027 146.26299434 80.15820312 157.13232422 C83.46509297 164.11411305 86.92188885 171.01411403 90.40209961 177.91088867 C95.6997298 188.44019056 100.74091209 199.06321918 105.61694336 209.79370117 C107.81176689 214.61753416 110.05572148 219.41442576 112.33432007 224.19923401 C113.93098118 227.556628 115.51371742 230.92050242 117.09533691 234.28500366 C117.87789417 235.94107702 118.66647786 237.59431716 119.46130371 239.24453735 C120.57893844 241.56741875 121.67417325 243.89971962 122.76538086 246.23510742 C123.27374229 247.27107559 123.27374229 247.27107559 123.79237366 248.32797241 C125.93438133 252.98765208 126.2835942 256.14162599 124.96459961 261.09838867 C122.3879927 264.21743915 120.81018921 265.81652547 116.96459961 267.09838867 C114.15151324 267.20518962 111.36283987 267.2556482 108.54931641 267.25952148 C107.26101425 267.26696884 107.26101425 267.26696884 105.94668579 267.27456665 C103.10238852 267.28918393 100.25814704 267.29598972 97.41381836 267.30151367 C95.43707782 267.30726569 93.4603373 267.31302342 91.4835968 267.31878662 C87.33671814 267.32929551 83.18985886 267.33513885 79.04296875 267.33862305 C73.73334297 267.3441061 68.42397384 267.36813063 63.11442852 267.396595 C59.03002681 267.4152337 54.94568675 267.42042765 50.86124611 267.42195892 C48.90405691 267.42498343 46.94686874 267.43300512 44.9897213 267.4461441 C42.24897202 267.4632295 39.50884757 267.46131821 36.76806641 267.45483398 C35.96213547 267.46404877 35.15620453 267.47326355 34.32585144 267.48275757 C29.47348075 267.4468588 26.18687268 266.74762668 21.96459961 264.09838867 C20.57177734 262.27441406 20.57177734 262.27441406 19.64819336 260.19604492 C19.28395264 259.40383545 18.91971191 258.61162598 18.54443359 257.79541016 C17.97897827 256.49132202 17.97897827 256.49132202 17.40209961 255.16088867 C16.98065674 254.2341333 16.55921387 253.30737793 16.125 252.35253906 C15.20618098 250.33133693 14.29494377 248.30667508 13.39038086 246.27905273 C10.95144767 240.83822713 8.41910071 235.44091519 5.90209961 230.03588867 C5.07875733 228.25738064 4.25541688 226.47887175 3.43217468 224.70031738 C0.61022425 218.60873109 -2.24161768 212.53191864 -5.11743164 206.46557617 C-5.46713013 205.7278598 -5.81682861 204.99014343 -6.17712402 204.23007202 C-6.89321368 202.71970957 -7.60933946 201.20936425 -8.32550049 199.69903564 C-14.55725253 186.55573593 -20.66916974 173.36719705 -26.6489563 160.10742188 C-31.07409916 150.30404648 -35.64493474 140.58388008 -40.34790039 130.91088867 C-42.04112822 127.41569142 -43.73345722 123.92006169 -45.42504883 120.42407227 C-46.49098833 118.22270357 -47.55931415 116.02248862 -48.63012695 113.82348633 C-50.09590398 110.79840174 -51.53766578 107.76305745 -52.97290039 104.72338867 C-53.62029175 103.40431519 -53.62029175 103.40431519 -54.28076172 102.05859375 C-54.66256592 101.2389917 -55.04437012 100.41938965 -55.43774414 99.57495117 C-55.77281982 98.87450684 -56.10789551 98.1740625 -56.453125 97.45239258 C-57.89110906 91.63895765 -55.61433696 86.64050683 -53.00805664 81.52026367 C-52.70355591 80.9155574 -52.39905518 80.31085114 -52.08532715 79.68782043 C-51.09931065 77.73619154 -50.0990282 75.79230268 -49.09790039 73.84838867 C-48.41024879 72.49580915 -47.7233233 71.14286025 -47.03710938 69.78955078 C-41.1363067 58.1806215 -35.09091253 46.64928258 -28.92993164 35.17651367 C-28.25662664 33.92137395 -27.58344679 32.66616709 -26.91040039 31.41088867 C-26.59047119 30.81550293 -26.27054199 30.22011719 -25.94091797 29.60668945 C-23.11389121 24.31490939 -20.43905202 18.95027196 -17.82397461 13.55078125 C-9.697376 -3.01202101 -9.697376 -3.01202101 0 0 Z M-6.03540039 6.09838867 C-11.24903599 13.20789176 -15.07168388 20.91600728 -18.91723633 28.80932617 C-24.1200096 39.46024368 -29.44178775 50.05167178 -34.97290039 60.53588867 C-35.37468506 61.30022217 -35.77646973 62.06455566 -36.19042969 62.85205078 C-38.47296845 67.18215446 -40.79282306 71.4891619 -43.14477539 75.78198242 C-43.65790283 76.73081299 -44.17103027 77.67964355 -44.69970703 78.65722656 C-45.6950208 80.49741639 -46.70158046 82.33157973 -47.72070312 84.15869141 C-48.16873291 84.99215088 -48.6167627 85.82561035 -49.07836914 86.68432617 C-49.48079834 87.41699707 -49.88322754 88.14966797 -50.29785156 88.90454102 C-51.83406547 93.47402734 -49.61624012 97.31718906 -47.59399414 101.42260742 C-47.09665771 102.44249756 -46.59932129 103.4623877 -46.08691406 104.51318359 C-45.55428955 105.59317627 -45.02166504 106.67316895 -44.47290039 107.78588867 C-40.76198687 115.40076903 -37.10892245 123.02062282 -33.72290039 130.78588867 C-31.55092067 135.75127261 -29.30871035 140.64179839 -26.84790039 145.47338867 C-23.45618857 152.15010677 -20.30101426 158.92529693 -17.16040039 165.72338867 C-11.65151652 177.64703659 -6.06623195 189.53276507 -0.44369507 201.40322876 C3.28813902 209.28314842 7.01055767 217.16634093 10.65600586 225.08666992 C10.94547089 225.71467499 11.23493591 226.34268005 11.53317261 226.98971558 C12.86266501 229.87546524 14.18745064 232.7631943 15.50366211 235.6550293 C19.35045828 244.02469345 23.60476775 251.92370394 27.96459961 260.09838867 C57.66459961 260.09838867 87.36459961 260.09838867 117.96459961 260.09838867 C118.99940857 254.92434388 118.94332569 254.15143964 116.90209961 249.66870117 C116.43868164 248.63406738 115.97526367 247.59943359 115.49780273 246.53344727 C114.9918457 245.44112793 114.48588867 244.34880859 113.96459961 243.22338867 C113.45348633 242.09368652 112.94237305 240.96398437 112.41577148 239.80004883 C110.94550352 236.55979013 109.45784319 233.32810956 107.96459961 230.09838867 C107.32876665 228.70795396 106.69327222 227.31736432 106.05834961 225.92651367 C104.70758393 222.9998547 103.3382757 220.08328513 101.95141602 217.17358398 C100.77573716 214.70122618 99.6109839 212.22380272 98.44506836 209.74682617 C93.5732487 199.43922688 88.58989467 189.22765817 83.13720703 179.21264648 C82.74895752 178.49302734 82.36070801 177.7734082 81.96069336 177.03198242 C81.62223389 176.41379639 81.28377441 175.79561035 80.93505859 175.15869141 C79.96459961 173.09838867 79.96459961 173.09838867 79.04663086 170.27612305 C77.85394091 166.77340365 76.32980683 163.62086316 74.65600586 160.32104492 C74.33395676 159.68251083 74.01190765 159.04397675 73.68009949 158.38609314 C72.99081965 157.01990634 72.29983907 155.6545765 71.6072998 154.29003906 C69.76525225 150.65923405 67.93698978 147.0215087 66.10913086 143.38354492 C65.74560516 142.66043121 65.38207947 141.9373175 65.00753784 141.19229126 C62.16684355 135.52974951 59.41605279 129.82869437 56.71459961 124.09838867 C51.63430431 113.34650953 46.29873669 102.72575837 40.96459961 92.09838867 C35.20361253 80.62059226 29.48294457 69.13416506 23.99731445 57.52148438 C19.32426705 47.66808781 14.42097568 37.92982171 9.53198242 28.18237305 C9.20407715 27.52826447 8.87617188 26.87415588 8.53833008 26.20022583 C7.89730843 24.92508455 7.25380777 23.65118605 6.60766602 22.37863159 C5.19753204 19.59628096 3.83419302 16.80874164 2.5534668 13.96411133 C1.9332666 12.60165283 1.9332666 12.60165283 1.30053711 11.21166992 C0.96328613 10.43218994 0.62603516 9.65270996 0.27856445 8.84960938 C-0.95987644 6.83186352 -0.95987644 6.83186352 -3.68139648 6.34130859 C-4.45821777 6.26114502 -5.23503906 6.18098145 -6.03540039 6.09838867 Z " fill="#F8FAFA" transform="translate(320.035400390625,179.901611328125)"/>
<path d="M0 0 C0.71688624 -0.00297112 1.43377247 -0.00594224 2.17238253 -0.0090034 C4.58675037 -0.01771013 7.00106874 -0.01920031 9.41545105 -0.02069092 C11.14160265 -0.02531771 12.86775322 -0.03034219 14.59390259 -0.03573608 C19.29231675 -0.04887583 23.99071661 -0.05530816 28.68914628 -0.05974674 C31.62296317 -0.06267506 34.55677613 -0.06677941 37.49059105 -0.07125092 C46.66521621 -0.08493027 55.83983241 -0.09459466 65.01446706 -0.09845281 C75.61367821 -0.10293417 86.21276044 -0.12048389 96.81193238 -0.1494534 C104.99882231 -0.17105471 113.18567593 -0.18115626 121.37259406 -0.18249393 C126.26494432 -0.18354311 131.15717347 -0.18947489 136.04949379 -0.20731354 C140.65169049 -0.22376732 145.25367468 -0.22596285 149.85589027 -0.21717453 C151.54537016 -0.2164027 153.23486134 -0.2207661 154.92431259 -0.23063278 C157.23047632 -0.24331155 159.53588281 -0.23749814 161.84204102 -0.22705078 C163.13271894 -0.22851734 164.42339685 -0.2299839 165.75318623 -0.2314949 C170.00038254 0.23888714 172.76397484 1.52380711 175.51184082 4.82044983 C178.68794701 10.25091997 181.53793959 15.80295323 184.27946472 21.46466064 C184.99904106 22.93779472 184.99904106 22.93779472 185.7331543 24.44068909 C187.2592262 27.56778215 188.77909284 30.69784676 190.29899597 33.82794189 C191.29926509 35.87825847 192.29991325 37.92839018 193.3009491 39.97833252 C195.28064437 44.03409333 197.24745692 48.09576794 199.20671082 52.16143799 C201.13262051 56.15104854 203.10445926 60.11271623 205.11393738 64.06085205 C205.58551773 65.00451126 206.05709808 65.94817047 206.54296875 66.92042542 C207.42783109 68.69075158 208.32750553 70.45378568 209.24484253 72.20750427 C211.97400975 77.73105926 212.59538362 81.10850272 211.11149597 87.14044189 C208.72573477 90.34887937 206.95402402 91.40091116 203.11149597 92.14044189 C201.67872227 92.22834039 200.24248216 92.26770993 198.80701542 92.26907635 C197.5195465 92.27391302 197.5195465 92.27391302 196.2060681 92.2788474 C195.26784773 92.27729879 194.32962736 92.27575019 193.36297607 92.27415466 C191.86243578 92.277553 191.86243578 92.277553 190.33158153 92.28101999 C186.96987796 92.28736472 183.60821465 92.28653032 180.24650574 92.28570557 C177.84026538 92.28869673 175.4340255 92.29209916 173.02778625 92.29588318 C167.16452677 92.30381149 161.30127677 92.30693798 155.43801302 92.30749556 C150.67270321 92.30797069 145.90739671 92.31002531 141.14208794 92.31319618 C127.6333527 92.32200217 114.12462542 92.32661558 100.61588729 92.32586571 C99.88764861 92.32582575 99.15940992 92.3257858 98.40910339 92.32574463 C97.67997633 92.32570375 96.95084927 92.32566287 96.19962745 92.32562075 C84.37920227 92.32521417 72.55880893 92.33478684 60.73839296 92.348883 C48.60303674 92.36324064 36.46769605 92.37015354 24.33233112 92.36928922 C17.51850251 92.36895706 10.70470728 92.3717123 3.89088631 92.38246727 C-2.51535368 92.3925141 -8.92154131 92.39224319 -15.32778549 92.38495064 C-17.68163595 92.38390198 -20.03549075 92.38628423 -22.38933372 92.3923111 C-25.59730658 92.39999422 -28.80503318 92.39541058 -32.01300049 92.38768005 C-32.94899013 92.39282362 -33.88497978 92.39796718 -34.84933275 92.40326661 C-40.14328814 92.37498778 -44.14446778 92.00246649 -48.63850403 88.95294189 C-50.5737567 86.14682552 -51.04427015 83.48097299 -50.88850403 80.14044189 C-49.74301494 76.5345713 -48.04957071 73.25146939 -46.32600403 69.89044189 C-45.83221252 68.89391602 -45.33842102 67.89739014 -44.82966614 66.8706665 C-43.2059221 63.61486704 -41.55222462 60.37598323 -39.88850403 57.14044189 C-39.32550598 56.04425537 -38.76250793 54.94806885 -38.18244934 53.81866455 C-35.85951786 49.30901882 -33.52801739 44.8041814 -31.17366028 40.31085205 C-28.21486826 34.662323 -25.30596428 28.99836906 -22.50569153 23.26934814 C-21.96936096 22.17485352 -21.4330304 21.08035889 -20.88044739 19.95269775 C-19.87256349 17.88611628 -18.87285365 15.81552034 -17.88288879 13.74029541 C-13.5453057 4.86232311 -10.4029588 0.02399703 0 0 Z M-9.27622986 10.90209961 C-10.22019456 13.05143537 -10.22019456 13.05143537 -10.88850403 15.14044189 C-11.35286362 15.97726501 -11.81722321 16.81408813 -12.2956543 17.67626953 C-12.66298172 18.39760071 -13.03030914 19.11893188 -13.4087677 19.86212158 C-14.05050179 21.11578522 -14.05050179 21.11578522 -14.7052002 22.39477539 C-15.15112015 23.27506409 -15.5970401 24.15535278 -16.05647278 25.06231689 C-16.53619034 26.00238586 -17.0159079 26.94245483 -17.51016235 27.91101074 C-19.03551479 30.90243389 -20.55575193 33.89642414 -22.07600403 36.89044189 C-23.07633876 38.85284275 -24.07698745 40.81508359 -25.07795715 42.77716064 C-27.05487395 46.65386084 -29.02228296 50.5351857 -30.98371887 54.41973877 C-32.92248134 58.25524997 -34.89412863 62.07118148 -36.89094543 65.87677002 C-37.59831596 67.24288422 -37.59831596 67.24288422 -38.31997681 68.63659668 C-39.20947673 70.35443901 -40.10954248 72.0668662 -41.02185059 73.77270508 C-41.41524124 74.53891174 -41.8086319 75.30511841 -42.21394348 76.09454346 C-42.73744133 77.09013275 -42.73744133 77.09013275 -43.27151489 78.10583496 C-44.06656818 80.72763306 -43.48702213 82.50344483 -42.88850403 85.14044189 C-11.43918688 85.16323169 20.01012793 85.18093977 51.4594514 85.19150722 C55.16841745 85.192758 58.87738347 85.19405232 62.58634949 85.19537354 C63.69397879 85.195767 63.69397879 85.195767 64.82398445 85.19616842 C76.79608516 85.20052523 88.76818109 85.20841285 100.74027895 85.21759469 C113.01560819 85.2269309 125.29093491 85.23249743 137.56626755 85.23453039 C145.14690205 85.23590568 152.72752305 85.24025663 160.3081534 85.24835836 C166.11118083 85.25424612 171.91420124 85.25490094 177.71723175 85.25354958 C180.10500993 85.2538261 182.49278859 85.25583377 184.88056374 85.25964737 C188.12511722 85.26457787 191.36961158 85.26344257 194.61416626 85.26069641 C195.57231765 85.26360925 196.53046903 85.26652209 197.51765531 85.2695232 C201.6397003 85.68322752 201.6397003 85.68322752 205.11149597 84.14044189 C204.71866959 78.74301593 203.12833203 74.45010474 200.71696472 69.67950439 C200.20148827 68.62990288 200.20148827 68.62990288 199.67559814 67.55909729 C198.55893777 65.29004002 197.42902899 63.0278644 196.29899597 60.76544189 C195.52352772 59.19507987 194.74912167 57.62419288 193.97575378 56.05279541 C192.42406425 52.90107425 190.86842307 49.75135276 189.31022644 46.60284424 C186.27312967 40.45376427 183.31415706 34.26797302 180.36149597 28.07794189 C179.45086357 26.16999539 178.53945433 24.26241938 177.62712097 22.35528564 C177.25877136 21.58305664 176.89042175 20.81082764 176.51091003 20.01519775 C175.19947588 17.32117521 173.86504851 14.6401637 172.52403259 11.96076965 C171.84688013 10.60749242 171.84688013 10.60749242 171.15604782 9.22687626 C170.81134571 8.53835292 170.4666436 7.84982958 170.11149597 7.14044189 C147.25045997 6.95363317 124.38954964 6.81252244 101.52790546 6.72594452 C90.91301282 6.68467782 80.29859416 6.62840888 69.68400574 6.53692627 C60.43324684 6.45723587 51.18283115 6.40558746 41.93173856 6.38773394 C37.0322698 6.37729591 32.13378296 6.35273546 27.23462868 6.29460144 C22.62394928 6.24033332 18.01465686 6.22354184 13.40368843 6.23558044 C11.71091424 6.23337795 10.0180941 6.21744156 8.32559586 6.1867981 C-1.73315572 5.48636411 -1.73315572 5.48636411 -9.27622986 10.90209961 Z " fill="#FAFBFB" transform="translate(100.88850402832031,354.85955810546875)"/>
<path d="M0 0 C0.66 0.33 1.32 0.66 2 1 C1.67 1.99 1.34 2.98 1 4 C3.64 4 6.28 4 9 4 C8.67 4.66 8.34 5.32 8 6 C6.8253418 6.1546875 6.8253418 6.1546875 5.62695312 6.3125 C2.8434573 6.75191297 2.8434573 6.75191297 1.38867188 9.125 C0.92009766 10.07375 0.45152344 11.0225 -0.03125 12 C-0.58425781 13.09505859 -1.13726562 14.19011719 -1.70703125 15.31835938 C-2.3047977 16.54551924 -2.90245025 17.7727346 -3.5 19 C-4.13743463 20.27503431 -4.77681063 21.54909962 -5.41796875 22.82226562 C-6.83452981 25.63945401 -8.2419558 28.46098056 -9.64453125 31.28515625 C-13.56500715 39.15776511 -17.59881961 46.973043 -21.61450195 54.79736328 C-22.97199736 57.44537635 -24.32548599 60.09539797 -25.67773438 62.74609375 C-26.10703247 63.5863208 -26.53633057 64.42654785 -26.9786377 65.29223633 C-27.81620706 66.93199047 -28.65242288 68.57243681 -29.48718262 70.21362305 C-31.33256279 73.82506851 -33.2057361 77.40629962 -35.21484375 80.9296875 C-35.86582031 82.07695312 -36.51679688 83.22421875 -37.1875 84.40625 C-37.75855469 85.37884766 -38.32960938 86.35144531 -38.91796875 87.35351562 C-40.21333357 90.52178156 -40.07223873 91.78581192 -39 95 C-38.24049589 96.79864614 -37.42133346 98.57274662 -36.55859375 100.32421875 C-36.06125732 101.34410889 -35.5639209 102.36399902 -35.05151367 103.41479492 C-34.51888916 104.4947876 -33.98626465 105.57478027 -33.4375 106.6875 C-29.72658648 114.30238035 -26.07352206 121.92223415 -22.6875 129.6875 C-20.51552028 134.65288393 -18.27330996 139.54340972 -15.8125 144.375 C-12.42078739 151.05171965 -9.26564667 157.82692148 -6.125 164.625 C0.1561611 178.21871003 6.53501081 191.76487622 12.94085693 205.30023193 C13.61293244 206.72152489 14.28405034 208.14327108 14.9541626 209.56549072 C16.72346298 213.31812239 18.51156785 217.06030579 20.32568359 220.79150391 C20.70214523 221.57274124 21.07860687 222.35397858 21.46647644 223.15888977 C22.19130198 224.66262545 22.92228195 226.16341393 23.66011047 227.66081238 C24.50039108 229.41287034 25.25855017 231.20388454 26 233 C25.67 233.66 25.34 234.32 25 235 C24.34 235 23.68 235 23 235 C23 237.31 23 239.62 23 242 C21.11294116 239.16941174 19.67745558 236.4072178 18.19921875 233.34765625 C17.64113525 232.19354248 17.08305176 231.03942871 16.50805664 229.8503418 C15.90098625 228.58783275 15.29414025 227.32521579 14.6875 226.0625 C14.376987 225.41785797 14.066474 224.77321594 13.74655151 224.10903931 C8.178211 212.54582969 2.74821731 200.9210914 -2.6328125 189.26953125 C-5.02576885 184.09143565 -7.43896275 178.92336212 -9.8671875 173.76171875 C-10.19334045 173.06831894 -10.51949341 172.37491913 -10.85552979 171.6605072 C-11.51384901 170.26109602 -12.17219451 168.8616972 -12.83056641 167.46231079 C-17.44704757 157.64898836 -22.01688671 147.82500329 -26.36108398 137.88720703 C-28.39540823 133.26672652 -30.5874945 128.74996458 -32.875 124.25 C-36.18918245 117.68611009 -39.42456396 111.08759104 -42.5625 104.4375 C-43.0167334 103.50905273 -43.4709668 102.58060547 -43.93896484 101.62402344 C-44.35227051 100.73618164 -44.76557617 99.84833984 -45.19140625 98.93359375 C-45.56467041 98.15040771 -45.93793457 97.36722168 -46.32250977 96.56030273 C-47.88891025 90.64072008 -45.63933978 85.66078503 -42.97265625 80.421875 C-42.66815552 79.81716873 -42.36365479 79.21246246 -42.04992676 78.58943176 C-41.06391026 76.63780287 -40.06362781 74.69391401 -39.0625 72.75 C-38.3748484 71.39742048 -37.68792291 70.04447158 -37.00170898 68.69116211 C-31.10090631 57.08223283 -25.05551214 45.55089391 -18.89453125 34.078125 C-18.22122625 32.82298528 -17.54804639 31.56777841 -16.875 30.3125 C-16.5550708 29.71711426 -16.2351416 29.12172852 -15.90551758 28.50830078 C-13.07849082 23.21652071 -10.40365163 17.85188329 -7.78857422 12.45239258 C-3.29591599 3.29591599 -3.29591599 3.29591599 0 0 Z " fill="#E6FAFB" transform="translate(310,181)"/>
<path d="M0 0 C0.33 0 0.66 0 1 0 C1 3 1 6 1 9 C1.99 9.495 1.99 9.495 3 10 C-1.70796762 19.51433328 -6.43802835 29.009961 -11.4375 38.375 C-16.64680495 48.15514054 -21.56084054 58.08179074 -26.5 68 C-31.68452032 78.41079216 -36.86886443 88.8105275 -42.35546875 99.06640625 C-46.557741 106.96202505 -50.50773155 114.98449811 -54.49087524 122.99200439 C-58.58236599 131.21352385 -62.73068476 139.39511494 -67.07104492 147.48876953 C-69.81357602 152.64208758 -72.42060426 157.85377235 -74.9921875 163.09375 C-75.71098463 164.55291401 -76.42981629 166.01206101 -77.14868164 167.47119141 C-78.57059933 170.35876215 -79.97891371 173.25247533 -81.38061523 176.14990234 C-82.04101868 177.49340269 -82.7018874 178.83667445 -83.36328125 180.1796875 C-83.65568695 180.79348267 -83.94809265 181.40727783 -84.24935913 182.03967285 C-86.26583758 186.09758461 -88.58098545 189.03122186 -92 192 C-95.40507313 193.13502438 -97.99220712 193.12016228 -101.58276367 193.11352539 C-102.24644455 193.11367142 -102.91012543 193.11381744 -103.59391785 193.1139679 C-105.78530152 193.11327182 -107.97659995 193.1054937 -110.16796875 193.09765625 C-111.68825738 193.09579099 -113.20854661 193.09436759 -114.72883606 193.09336853 C-118.72864443 193.08955188 -122.72841644 193.07972885 -126.72821045 193.06866455 C-130.81033842 193.05843213 -134.89247227 193.05386698 -138.97460938 193.04882812 C-146.98308959 193.03810583 -154.99154027 193.02103961 -163 193 C-162.505 192.01 -162.505 192.01 -162 191 C-139.56 190.67 -117.12 190.34 -94 190 C-94 189.34 -94 188.68 -94 188 C-115.45 187.67 -136.9 187.34 -159 187 C-158.505 186.01 -158.505 186.01 -158 185 C-136.88 185 -115.76 185 -94 185 C-90.04 177.08 -86.08 169.16 -82 161 C-77.4375 152.375 -77.4375 152.375 -76.13647461 149.93115234 C-71.42828884 141.0371065 -66.98567807 132.00750321 -62.5 123 C-57.38543443 112.72979586 -52.27436745 102.46944214 -46.85546875 92.35546875 C-41.98226654 83.19318103 -37.4205979 73.87032055 -32.79571533 64.58117676 C-28.20198355 55.35806832 -23.57648444 46.16380193 -18.71728516 37.0769043 C-12.2171815 24.85507665 -6.15812273 12.39646149 0 0 Z " fill="#E6FAFB" transform="translate(296,152)"/>
<path d="M0 0 C0.74946396 -0.00095673 1.49892792 -0.00191345 2.27110291 -0.00289917 C3.85562219 -0.00357991 5.44014427 -0.00173301 7.0246582 0.00244141 C9.4585593 0.00779867 11.89227648 0.00248903 14.32617188 -0.00390625 C15.86328166 -0.0032456 17.40039133 -0.0019647 18.9375 0 C19.6697731 -0.00202423 20.4020462 -0.00404846 21.1565094 -0.00613403 C26.28738707 0.01785582 26.28738707 0.01785582 27.40234375 1.1328125 C29.2369255 1.24149412 31.07570425 1.27969666 32.91346741 1.29103088 C34.70774422 1.30571411 34.70774422 1.30571411 36.53826904 1.32069397 C37.87585409 1.32659891 39.21343956 1.33240931 40.55102539 1.33813477 C41.95017286 1.34770803 43.34931741 1.35771778 44.74845886 1.36813354 C48.55817684 1.3952485 52.36790729 1.41622225 56.17766881 1.43613553 C60.15488174 1.45795458 64.13205594 1.48536317 68.10923767 1.51219177 C75.64570105 1.56217402 83.18218587 1.60709225 90.71869129 1.65021414 C99.29656954 1.69953934 107.87440894 1.7544749 116.45224965 1.80989373 C134.10224497 1.92379867 151.75227693 2.03061907 169.40234375 2.1328125 C169.73234375 3.4528125 170.06234375 4.7728125 170.40234375 6.1328125 C169.29831317 6.13916041 169.29831317 6.13916041 168.17197895 6.14563656 C150.11945071 6.2497219 132.06695573 6.35846241 114.01448536 6.47215176 C105.28383853 6.5270269 96.5531877 6.58042447 87.82250977 6.63012695 C80.19758127 6.67353855 72.57267734 6.7199429 64.94778746 6.76969105 C60.92437093 6.79584369 56.90095781 6.82066835 52.87751198 6.84188652 C33.03374555 6.94764961 13.23137885 7.31476711 -6.59765625 8.1328125 C-7.25499933 9.37757332 -7.91231776 10.62234717 -8.56962585 11.86712646 C-8.93567271 12.56030849 -9.30171957 13.25349052 -9.67885876 13.96767807 C-16.72512967 27.31791895 -23.696975 40.70676065 -30.59765625 54.1328125 C-30.90906555 54.73782593 -31.22047485 55.34283936 -31.5413208 55.96618652 C-33.69913034 60.16053523 -35.83949712 64.36337175 -37.97265625 68.5703125 C-38.53831299 69.67189697 -39.10396973 70.77348145 -39.68676758 71.90844727 C-40.20134521 72.92994873 -40.71592285 73.9514502 -41.24609375 75.00390625 C-41.70161621 75.90036865 -42.15713867 76.79683105 -42.62646484 77.72045898 C-43.84663067 80.31782427 -43.84663067 80.31782427 -43.59765625 84.1328125 C-41.94765625 84.4628125 -40.29765625 84.7928125 -38.59765625 85.1328125 C-39.97265625 87.1328125 -39.97265625 87.1328125 -41.59765625 89.1328125 C-42.25765625 89.1328125 -42.91765625 89.1328125 -43.59765625 89.1328125 C-43.59765625 89.7928125 -43.59765625 90.4528125 -43.59765625 91.1328125 C-45.81876911 90.74986201 -47.40145908 90.26361062 -49.28515625 89.0078125 C-51.26665485 86.17710021 -51.75929195 83.52054105 -51.59765625 80.1328125 C-50.45169987 76.52706441 -48.75873915 73.24387163 -47.03515625 69.8828125 C-46.54136475 68.88628662 -46.04757324 67.88976074 -45.53881836 66.86303711 C-43.91507432 63.60723764 -42.26137684 60.36835384 -40.59765625 57.1328125 C-40.0346582 56.03662598 -39.47166016 54.94043945 -38.89160156 53.81103516 C-36.56867009 49.30138943 -34.23716961 44.79655201 -31.8828125 40.30322266 C-28.92402048 34.65469361 -26.01511651 28.99073966 -23.21484375 23.26171875 C-22.67851318 22.16722412 -22.14218262 21.07272949 -21.58959961 19.94506836 C-20.58171571 17.87848689 -19.58200587 15.80789095 -18.59204102 13.73266602 C-14.05878353 4.45419606 -10.73280301 -0.02975105 0 0 Z " fill="#FAFDFC" transform="translate(101.59765625,354.8671875)"/>
<path d="M0 0 C18.42812403 -0.07007601 36.85621348 -0.12298126 55.28444195 -0.15543652 C63.84095908 -0.17090649 72.39739342 -0.19199848 80.95385742 -0.22631836 C88.41153147 -0.25621675 95.86914557 -0.27557406 103.32687789 -0.28226548 C107.27583698 -0.28617701 111.22462455 -0.29537225 115.17352867 -0.31719017 C118.89090184 -0.33756234 122.60803293 -0.34383237 126.32545662 -0.33932304 C128.33913383 -0.34054104 130.35278473 -0.35667936 132.36639404 -0.3732605 C133.56807724 -0.36913651 134.76976044 -0.36501251 136.00785828 -0.36076355 C137.57168007 -0.36491162 137.57168007 -0.36491162 139.16709423 -0.36914349 C143.02289313 0.1332887 145.79001082 1.59542192 148.3359375 4.55078125 C151.00226312 9.07150626 153.439305 13.69503074 155.8125 18.375 C156.12687012 18.99415283 156.44124023 19.61330566 156.76513672 20.2512207 C159 24.75507205 159 24.75507205 159 27 C158.484375 27.433125 157.96875 27.86625 157.4375 28.3125 C156.963125 28.869375 156.48875 29.42625 156 30 C156.23043864 32.65466049 156.23043864 32.65466049 157 35 C154.70025312 32.09927397 152.95844375 29.17411168 151.30078125 25.8671875 C150.81416016 24.89652344 150.32753906 23.92585938 149.82617188 22.92578125 C149.32666016 21.91902344 148.82714844 20.91226562 148.3125 19.875 C147.80138672 18.86050781 147.29027344 17.84601563 146.76367188 16.80078125 C146.03954102 15.34865234 146.03954102 15.34865234 145.30078125 13.8671875 C144.85903564 12.98144043 144.41729004 12.09569336 143.9621582 11.18310547 C143 9 143 9 143 7 C94.49 7 45.98 7 -4 7 C-4 6.67 -4 6.34 -4 6 C44.84 6 93.68 6 144 6 C143.67 5.01 143.34 4.02 143 3 C96.14 2.67 49.28 2.34 1 2 C0.67 1.34 0.34 0.68 0 0 Z " fill="#B2E3E9" transform="translate(128,355)"/>
<path d="M0 0 C0.99 0.495 0.99 0.495 2 1 C1.51568979 6.35469744 0.08595734 10.33276036 -2.5625 14.9375 C-3.29872605 16.26720596 -4.03304411 17.59796982 -4.765625 18.9296875 C-5.14009766 19.60612305 -5.51457031 20.28255859 -5.90039062 20.97949219 C-7.61748162 24.13460876 -9.21807197 27.3441023 -10.8125 30.5625 C-11.13202637 31.20219727 -11.45155273 31.84189453 -11.78076172 32.50097656 C-13.80591938 36.56306036 -15.79611014 40.64098577 -17.7734375 44.7265625 C-18.74478309 46.71354586 -19.7161372 48.70052506 -20.6875 50.6875 C-21.13907471 51.63246338 -21.59064941 52.57742676 -22.0559082 53.55102539 C-24.4997514 58.52882599 -26.6715927 62.47554232 -31 66 C-34.40507313 67.13502438 -36.99220712 67.12016228 -40.58276367 67.11352539 C-41.24644455 67.11367142 -41.91012543 67.11381744 -42.59391785 67.1139679 C-44.78530152 67.11327182 -46.97659995 67.1054937 -49.16796875 67.09765625 C-50.68825738 67.09579099 -52.20854661 67.09436759 -53.72883606 67.09336853 C-57.72864443 67.08955188 -61.72841644 67.07972885 -65.72821045 67.06866455 C-69.81033842 67.05843213 -73.89247227 67.05386698 -77.97460938 67.04882812 C-85.98308959 67.03810583 -93.99154027 67.02103961 -102 67 C-101.505 66.01 -101.505 66.01 -101 65 C-78.56 64.67 -56.12 64.34 -33 64 C-33 63.34 -33 62.68 -33 62 C-54.45 61.67 -75.9 61.34 -98 61 C-97.67 60.34 -97.34 59.68 -97 59 C-75.88 59 -54.76 59 -33 59 C-29.04 51.08 -25.08 43.16 -21 35 C-10.99428354 15.55068598 -10.99428354 15.55068598 -8 13 C-7.34 13 -6.68 13 -6 13 C-5.855625 12.4225 -5.71125 11.845 -5.5625 11.25 C-5.04166667 9.16666667 -4.52083333 7.08333333 -4 5 C-3.34 5 -2.68 5 -2 5 C-1.855625 4.360625 -1.71125 3.72125 -1.5625 3.0625 C-1 1 -1 1 0 0 Z " fill="#ECFBFC" transform="translate(235,278)"/>
<path d="M0 0 C1.65 0.99 3.3 1.98 5 3 C5 2.34 5 1.68 5 1 C5.99 1.495 5.99 1.495 7 2 C5.97934003 4.11681255 4.93560373 6.21580229 3.875 8.3125 C3.29492188 9.48425781 2.71484375 10.65601563 2.1171875 11.86328125 C-0.35606579 15.52752921 -1.93906255 16.36936541 -6 18 C-9.30307007 18.36076355 -9.30307007 18.36076355 -12.92333984 18.34057617 C-13.91951828 18.34123329 -13.91951828 18.34123329 -14.93582153 18.34190369 C-17.1111688 18.33982875 -19.2857264 18.31656086 -21.4609375 18.29296875 C-22.9769346 18.28736814 -24.49293716 18.28310024 -26.00894165 18.28010559 C-29.98418368 18.26869329 -33.95909288 18.23925776 -37.9342041 18.20599365 C-41.99645486 18.17521441 -46.0587598 18.16158353 -50.12109375 18.14648438 C-58.0808813 18.11438413 -66.04039915 18.06323213 -74 18 C-73.67 17.34 -73.34 16.68 -73 16 C-50.56 15.67 -28.12 15.34 -5 15 C-5 14.34 -5 13.68 -5 13 C-26.45 12.67 -47.9 12.34 -70 12 C-69.67 11.34 -69.34 10.68 -69 10 C-47.88 10 -26.76 10 -5 10 C-3.35 6.7 -1.7 3.4 0 0 Z " fill="#BAE9EE" transform="translate(207,327)"/>
<path d="M0 0 C0.99 0 1.98 0 3 0 C3.50599731 1.05743408 3.50599731 1.05743408 4.0222168 2.13623047 C5.57642311 5.38291296 7.13195357 8.62895939 8.6875 11.875 C9.48317383 13.53789062 9.48317383 13.53789062 10.29492188 15.234375 C10.82021484 16.33007812 11.34550781 17.42578125 11.88671875 18.5546875 C12.66474854 20.18035645 12.66474854 20.18035645 13.45849609 21.83886719 C15.30517564 25.62581789 17.24598799 29.35969497 19.22583008 33.07861328 C19.48130615 33.7126709 19.73678223 34.34672852 20 35 C19.67 35.66 19.34 36.32 19 37 C18.34 36.67 17.68 36.34 17 36 C16.67 37.98 16.34 39.96 16 42 C12.72513198 37.08769797 10.22584957 31.76266233 7.5625 26.5 C6.97662109 25.365625 6.39074219 24.23125 5.78710938 23.0625 C2.30463207 16.16869702 -0.33662375 9.55056392 -2 2 C-1.34 1.34 -0.68 0.68 0 0 Z " fill="#E7FAFB" transform="translate(285,382)"/>
<path d="M0 0 C22.44 0 44.88 0 68 0 C68 0.33 68 0.66 68 1 C46.22 1.33 24.44 1.66 2 2 C1.34 4.31 0.68 6.62 0 9 C0.7145252 8.99815641 1.42905041 8.99631283 2.16522789 8.99441338 C19.53228351 8.95029003 36.89932493 8.9171706 54.26642418 8.89637566 C62.66494125 8.8860527 71.06342097 8.87197296 79.46191406 8.84912109 C86.7800237 8.82921835 94.09810629 8.81629099 101.41624224 8.81182301 C105.29296441 8.80921033 109.16960919 8.80304838 113.04630661 8.78853989 C116.69222802 8.77500511 120.33803985 8.77076898 123.98398399 8.77378464 C125.96601633 8.77296864 127.94803662 8.76218559 129.93003845 8.75115967 C131.10235519 8.753909 132.27467194 8.75665833 133.48251343 8.75949097 C135.01729875 8.75672559 135.01729875 8.75672559 136.58308983 8.75390434 C139 9 139 9 141 11 C93.48 10.67 45.96 10.34 -3 10 C-2.01 6.7 -1.02 3.4 0 0 Z " fill="#168FA1" transform="translate(132,345)"/>
<path d="M0 0 C48.51 0 97.02 0 147 0 C147.99 2.97 147.99 2.97 149 6 C147.02 5.01 145.04 4.02 143 3 C143 2.34 143 1.68 143 1 C96.8 1 50.6 1 3 1 C2.34 3.31 1.68 5.62 1 8 C-0.32 8.33 -1.64 8.66 -3 9 C-3 9.99 -3 10.98 -3 12 C-3.66 12 -4.32 12 -5 12 C-3.65731345 7.66208962 -2.06787321 4.13574643 0 0 Z " fill="#1490A4" transform="translate(124,362)"/>
<path d="M0 0 C0.66 0 1.32 0 2 0 C4.14112196 4.51837475 6.27723441 9.03906965 8.40869141 13.56201172 C9.13484892 15.10107577 9.86238331 16.63949097 10.59130859 18.17724609 C11.63739876 20.38470984 12.67855298 22.59444189 13.71875 24.8046875 C14.21091003 25.83914505 14.21091003 25.83914505 14.7130127 26.89450073 C17 31.77225659 17 31.77225659 17 34 C-29.035 34.495 -29.035 34.495 -76 35 C-76.33 34.34 -76.66 33.68 -77 33 C-46.97 33 -16.94 33 14 33 C13.01 29.535 13.01 29.535 12 26 C11.34 26 10.68 26 10 26 C9.5978125 24.205625 9.5978125 24.205625 9.1875 22.375 C8.1028236 18.05921011 6.8728575 13.69037395 3.4765625 10.625 C1.61837339 8.58000881 1.32030014 7.0077469 0.8125 4.3125 C0.65394531 3.50425781 0.49539063 2.69601562 0.33203125 1.86328125 C0.16767578 0.94095703 0.16767578 0.94095703 0 0 Z " fill="#2E8999" transform="translate(418,393)"/>
<path d="M0 0 C1.65 0.99 3.3 1.98 5 3 C5 2.34 5 1.68 5 1 C5.99 1.495 5.99 1.495 7 2 C5.02 5.63 3.04 9.26 1 13 C0.01 11.515 0.01 11.515 -1 10 C-1.52756897 10.48986893 -2.05513794 10.97973785 -2.59869385 11.48445129 C-5.73637236 13.46475048 -7.7260734 13.32754495 -11.42089844 13.2487793 C-12.72194519 13.22853195 -14.02299194 13.20828461 -15.36346436 13.18742371 C-16.77877661 13.15001653 -18.19408002 13.11227368 -19.609375 13.07421875 C-21.06094892 13.04617443 -22.5125496 13.0194852 -23.96417236 12.99409485 C-27.77855281 12.92374145 -31.5922918 12.83500826 -35.40618896 12.74243164 C-39.30052026 12.65116063 -43.19517741 12.57729111 -47.08984375 12.50195312 C-54.72698762 12.35165713 -62.36353752 12.18194102 -70 12 C-69.67 11.34 -69.34 10.68 -69 10 C-47.88 10 -26.76 10 -5 10 C-3.35 6.7 -1.7 3.4 0 0 Z " fill="#B5E1E7" transform="translate(207,327)"/>
<path d="M0 0 C1.32 0 2.64 0 4 0 C4 1.65 4 3.3 4 5 C33.37 5 62.74 5 93 5 C93.33 4.34 93.66 3.68 94 3 C94 3.99 94 4.98 94 6 C63.97 6 33.94 6 3 6 C2.01 4.02 1.02 2.04 0 0 Z " fill="#0F92A8" transform="translate(338,420)"/>
<path d="M0 0 C0.33 0 0.66 0 1 0 C1.66 1.98 2.32 3.96 3 6 C3.66 6 4.32 6 5 6 C5 8.31 5 10.62 5 13 C5.99 13 6.98 13 8 13 C8.23074219 13.73863281 8.46148437 14.47726562 8.69921875 15.23828125 C11.24459971 23.15612636 14.23448574 30.74162781 18.109375 38.109375 C19.31544375 40.66962621 19.6197444 43.21145892 20 46 C16.9213232 42.32372597 15.04841462 38.21612649 13.0234375 33.91015625 C12.65272125 33.12861679 12.282005 32.34707733 11.90005493 31.54185486 C11.11957689 29.89298931 10.34141633 28.24302505 9.56542969 26.59204102 C8.37920201 24.07142884 7.18228781 21.55609161 5.984375 19.04101562 C5.22591051 17.43520362 4.46807673 15.82909354 3.7109375 14.22265625 C3.3536557 13.47355484 2.9963739 12.72445343 2.62826538 11.95265198 C0.9441579 8.34872764 -0.59766438 5.00949904 -1 1 C-0.67 0.67 -0.34 0.34 0 0 Z " fill="#1E95AB" transform="translate(314,364)"/>
<path d="M0 0 C0.33 0 0.66 0 1 0 C1 3 1 6 1 9 C1.66 9.33 2.32 9.66 3 10 C1.35 13.3 -0.3 16.6 -2 20 C-2.99 19.34 -3.98 18.68 -5 18 C-5.680625 18.99 -5.680625 18.99 -6.375 20 C-6.91125 20.66 -7.4475 21.32 -8 22 C-8.66 22 -9.32 22 -10 22 C-8.4719611 16.90117545 -6.28963144 12.34334341 -3.875 7.625 C-3.50246094 6.88894531 -3.12992187 6.15289062 -2.74609375 5.39453125 C-1.8343878 3.59449642 -0.91770068 1.79698598 0 0 Z " fill="#DFF7FA" transform="translate(296,152)"/>
<path d="M0 0 C0.66 0 1.32 0 2 0 C2.97110486 3.02121511 3.13617383 5.00463263 2 8 C1.01 8.495 1.01 8.495 0 9 C-0.33 9.99 -0.66 10.98 -1 12 C-1.66 12 -2.32 12 -3 12 C-3.33 12.99 -3.66 13.98 -4 15 C-4.66 14.67 -5.32 14.34 -6 14 C-5.690625 15.11375 -5.690625 15.11375 -5.375 16.25 C-4.95591249 19.32330841 -5.38050989 20.42786866 -7 23 C-7.99 22.67 -8.98 22.34 -10 22 C-8.97137215 16.55432314 -7.75385216 11.88182883 -5 7 C-4.01 7 -3.02 7 -2 7 C-1.34 4.69 -0.68 2.38 0 0 Z " fill="#F3FCFC" transform="translate(296,208)"/>
<path d="M0 0 C0.66 0 1.32 0 2 0 C0.93787671 7.45071559 -1.34124111 13.43657756 -5 20 C-6.04449911 16.86650268 -5.93423645 16.01031744 -5 13 C-5.66 13 -6.32 13 -7 13 C-7 13.66 -7 14.32 -7 15 C-7.66 15 -8.32 15 -9 15 C-7.125 9.25 -7.125 9.25 -6 7 C-5.01 7 -4.02 7 -3 7 C-2.814375 6.1028125 -2.814375 6.1028125 -2.625 5.1875 C-2 3 -2 3 0 0 Z " fill="#EFFDFD" transform="translate(254,240)"/>
<path d="M0 0 C0.66 0 1.32 0 2 0 C4.0247025 4.21163955 6.03645091 8.4291266 8.03637695 12.65258789 C8.71870892 14.08884553 9.40456733 15.52343331 10.09399414 16.95629883 C11.08368175 19.01476355 12.06058207 21.07887669 13.03515625 23.14453125 C13.34655045 23.78526077 13.65794464 24.4259903 13.97877502 25.08613586 C16.11387171 29.65838488 16.11387171 29.65838488 15 33 C12 28.25 12 28.25 12 26 C11.34 26 10.68 26 10 26 C9.5978125 24.205625 9.5978125 24.205625 9.1875 22.375 C8.1028236 18.05921011 6.8728575 13.69037395 3.4765625 10.625 C1.61837339 8.58000881 1.32030014 7.0077469 0.8125 4.3125 C0.65394531 3.50425781 0.49539063 2.69601562 0.33203125 1.86328125 C0.22246094 1.24839844 0.11289062 0.63351562 0 0 Z " fill="#185F6B" transform="translate(418,393)"/>
<path d="M0 0 C0.33 0 0.66 0 1 0 C1.33 1.65 1.66 3.3 2 5 C2.99 5.33 3.98 5.66 5 6 C4.01 7.98 3.02 9.96 2 12 C1.01 11.01 0.02 10.02 -1 9 C-1.66 10.32 -2.32 11.64 -3 13 C-3.66 13 -4.32 13 -5 13 C-5.144375 13.763125 -5.28875 14.52625 -5.4375 15.3125 C-6 18 -6 18 -7 21 C-7.99 21.33 -8.98 21.66 -10 22 C-8.4719611 16.90117545 -6.28963144 12.34334341 -3.875 7.625 C-3.50246094 6.88894531 -3.12992188 6.15289062 -2.74609375 5.39453125 C-1.8343878 3.59449642 -0.91770068 1.79698598 0 0 Z " fill="#DAF7FA" transform="translate(236,270)"/>
<path d="M0 0 C2.96616849 3.60899318 4.95712323 7.57432511 7.046875 11.72265625 C7.42233459 12.46454697 7.79779419 13.20643768 8.18463135 13.97080994 C8.97340293 15.53388975 9.7599604 17.09808859 10.54443359 18.66333008 C11.75008167 21.06266252 12.97045835 23.45412785 14.19140625 25.84570312 C14.95664635 27.3667264 15.72100035 28.88819588 16.484375 30.41015625 C16.85197937 31.12583267 17.21958374 31.84150909 17.59832764 32.57887268 C20.11430985 37.65707045 20.11430985 37.65707045 19 41 C16.85867666 36.76671007 14.7225723 32.5308439 12.59130859 28.29248047 C11.86520743 26.85034935 11.13767335 25.40893878 10.40869141 23.96826172 C9.36245182 21.89998128 8.32135554 19.829183 7.28125 17.7578125 C6.95314331 17.11192169 6.62503662 16.46603088 6.2869873 15.80056763 C4 11.22774341 4 11.22774341 4 9 C3.01 8.67 2.02 8.34 1 8 C0.67 5.36 0.34 2.72 0 0 Z " fill="#1F4853" transform="translate(330,211)"/>
<path d="M0 0 C-3.3 6.27 -6.6 12.54 -10 19 C-11.24546405 16.50907189 -10.7767578 15.58919267 -10 13 C-9.34 13 -8.68 13 -8 13 C-8 12.071875 -8 11.14375 -8 10.1875 C-8 4 -8 4 -7 1 C-2.55696203 -1.27848101 -2.55696203 -1.27848101 0 0 Z " fill="#0C95AE" transform="translate(235,274)"/>
<path d="M0 0 C0.66 0.33 1.32 0.66 2 1 C0.06581694 4.89748864 -1.87292579 8.79269181 -3.8125 12.6875 C-4.35970703 13.79029297 -4.90691406 14.89308594 -5.47070312 16.02929688 C-6.26831055 17.6293457 -6.26831055 17.6293457 -7.08203125 19.26171875 C-7.56905518 20.24100342 -8.0560791 21.22028809 -8.55786133 22.22924805 C-9.94425031 24.89288925 -11.37307898 27.47572541 -13 30 C-13.33 30 -13.66 30 -14 30 C-13.67 27.69 -13.34 25.38 -13 23 C-12.01 22.67 -11.02 22.34 -10 22 C-10 20.68 -10 19.36 -10 18 C-9.34 18 -8.68 18 -8 18 C-7.87882812 17.36191406 -7.75765625 16.72382813 -7.6328125 16.06640625 C-7.46523438 15.24011719 -7.29765625 14.41382813 -7.125 13.5625 C-6.96257812 12.73878906 -6.80015625 11.91507813 -6.6328125 11.06640625 C-6.42398437 10.38449219 -6.21515625 9.70257813 -6 9 C-5.34 8.67 -4.68 8.34 -4 8 C-2.87775145 6.11986894 -2.87775145 6.11986894 -1.875 3.9375 C-1.52179688 3.20402344 -1.16859375 2.47054687 -0.8046875 1.71484375 C-0.53914063 1.14894531 -0.27359375 0.58304688 0 0 Z " fill="#2298AC" transform="translate(287,167)"/>
<path d="M0 0 C0.66 0.33 1.32 0.66 2 1 C1.01 4.3 0.02 7.6 -1 11 C-1.66 11 -2.32 11 -3 11 C-3 11.66 -3 12.32 -3 13 C-3.66 13 -4.32 13 -5 13 C-5 14.32 -5 15.64 -5 17 C-5.99 16.67 -6.98 16.34 -8 16 C-7.11223998 12.30099992 -6.05418136 8.65449539 -5 5 C-3.68 4.67 -2.36 4.34 -1 4 C-0.67 2.68 -0.34 1.36 0 0 Z " fill="#F9FDFC" transform="translate(282,185)"/>
<path d="M0 0 C0.66 0 1.32 0 2 0 C0.30916337 6.05034312 -2.6828924 11.36414871 -5.625 16.875 C-6.3984375 18.33679688 -6.3984375 18.33679688 -7.1875 19.828125 C-8.45428286 22.22093706 -9.72521318 24.61144536 -11 27 C-11.97608217 24.07175348 -12.08226668 22.04386724 -12 19 C-11.01 18.67 -10.02 18.34 -9 18 C-8.67 17.01 -8.34 16.02 -8 15 C-7.34 15 -6.68 15 -6 15 C-5.89042969 14.36191406 -5.78085937 13.72382813 -5.66796875 13.06640625 C-5.50941406 12.24011719 -5.35085938 11.41382813 -5.1875 10.5625 C-5.03667969 9.73878906 -4.88585937 8.91507813 -4.73046875 8.06640625 C-4.36888672 7.04353516 -4.36888672 7.04353516 -4 6 C-3.01 5.67 -2.02 5.34 -1 5 C-0.67 3.35 -0.34 1.7 0 0 Z " fill="#2098AB" transform="translate(305,184)"/>
<path d="M0 0 C0.33 0 0.66 0 1 0 C3.21538462 6.4 3.21538462 6.4 2.125 9.4375 C1.75375 9.953125 1.3825 10.46875 1 11 C0.67 10.34 0.34 9.68 0 9 C-0.66 9 -1.32 9 -2 9 C-2 10.65 -2 12.3 -2 14 C-3.65 14.66 -5.3 15.32 -7 16 C-5.35433477 10.31497465 -2.70967216 5.23318364 0 0 Z " fill="#0F91A6" transform="translate(108,393)"/>
<path d="M0 0 C3 1 3 1 4.1328125 3.14453125 C4.46023438 4.02496094 4.78765625 4.90539062 5.125 5.8125 C5.45757812 6.68519531 5.79015625 7.55789063 6.1328125 8.45703125 C6.87335725 10.62862868 7.48945093 12.76504539 8 15 C8.99 15 9.98 15 11 15 C12.42500059 18.99000166 13.40075776 22.80530429 14 27 C13.34 27 12.68 27 12 27 C10.28860255 23.31662664 8.57966923 19.63212155 6.87304688 15.9465332 C6.29169852 14.69198476 5.7096687 13.43775187 5.12695312 12.18383789 C4.29119128 10.38510216 3.4580539 8.58514772 2.625 6.78515625 C2.12226563 5.70113525 1.61953125 4.61711426 1.1015625 3.50024414 C0 1 0 1 0 0 Z " fill="#1D97A8" transform="translate(296,330)"/>
<path d="M0 0 C-0.30852185 1.958964 -0.6219418 3.91715713 -0.9375 5.875 C-1.11152344 6.96554687 -1.28554688 8.05609375 -1.46484375 9.1796875 C-2 12 -2 12 -3 14 C-3.99 13.67 -4.98 13.34 -6 13 C-6.02698189 11.37509046 -6.04638757 9.75005367 -6.0625 8.125 C-6.07410156 7.22007812 -6.08570313 6.31515625 -6.09765625 5.3828125 C-6 3 -6 3 -5 1 C-2 0 -2 0 0 0 Z " fill="#F6FDFB" transform="translate(271,263)"/>
<path d="M0 0 C0.99 0.33 1.98 0.66 3 1 C1.45454854 6.47932789 -1.15543212 11.11429181 -4 16 C-4.66 14.68 -5.32 13.36 -6 12 C-5.67 11.67 -5.34 11.34 -5 11 C-5.66 10.34 -6.32 9.68 -7 9 C-5.6875 7.5 -5.6875 7.5 -4 6 C-3.01 6 -2.02 6 -1 6 C-0.67 4.02 -0.34 2.04 0 0 Z " fill="#0A96AF" transform="translate(218,299)"/>
<path d="M0 0 C1.01562016 3.17744022 0.96666643 5.37828389 0.25 8.625 C0.09015625 9.40101563 -0.0696875 10.17703125 -0.234375 10.9765625 C-1 13 -1 13 -4 15 C-4.99 15.33 -5.98 15.66 -7 16 C-6.28028381 12.24654344 -4.66887798 9.13908031 -2.9375 5.75 C-2.11572266 4.13351563 -2.11572266 4.13351563 -1.27734375 2.484375 C-0.64505859 1.25460938 -0.64505859 1.25460938 0 0 Z " fill="#1890A1" transform="translate(230,157)"/>
<path d="M0 0 C1.37825634 4.13476901 -0.17479039 6.78091048 -1.75 10.625 C-2.01554687 11.31851563 -2.28109375 12.01203125 -2.5546875 12.7265625 C-3.27792509 14.5241239 -4.13182499 16.26778415 -5 18 C-5.99 18.33 -6.98 18.66 -8 19 C-8 19.66 -8 20.32 -8 21 C-8.66 20.67 -9.32 20.34 -10 20 C-6.7 13.4 -3.4 6.8 0 0 Z " fill="#2498AA" transform="translate(280,197)"/>
<path d="M0 0 C1.95958713 3.91917426 0.17397688 8.43713361 -1.0625 12.4375 C-1.371875 13.283125 -1.68125 14.12875 -2 15 C-3.65 15 -5.3 15 -7 15 C-5.45454854 9.52067211 -2.84456788 4.88570819 0 0 Z " fill="#1393A7" transform="translate(222,173)"/>
<path d="M0 0 C0.33 0 0.66 0 1 0 C0.7313393 6.04486575 0.06423007 10.21855286 -4 15 C-4.99 15.33 -5.98 15.66 -7 16 C-5.35433477 10.31497465 -2.70967216 5.23318364 0 0 Z " fill="#1393A1" transform="translate(198,219)"/>
<path d="M0 0 C2.25 0.0625 2.25 0.0625 5 1 C6.86135162 3.24865149 7.78061322 5.27982948 9 8 C8.67 8.99 8.34 9.98 8 11 C7.34 9.02 6.68 7.04 6 5 C5.01 5.33 4.02 5.66 3 6 C0.3125 5.0625 0.3125 5.0625 -2 4 C-1.34 2.68 -0.68 1.36 0 0 Z " fill="#167E8F" transform="translate(314,186)"/>
<path d="M0 0 C3.5586506 3.14773888 5.3533332 6.31774991 7.3125 10.625 C7.84488281 11.77226562 8.37726563 12.91953125 8.92578125 14.1015625 C9.28027344 15.05804688 9.63476562 16.01453125 10 17 C9.67 17.66 9.34 18.32 9 19 C6.49368072 15.40760904 4.62039156 12.05097889 3 8 C2.34 7.67 1.68 7.34 1 7 C0.59270772 4.67843403 0.25561323 2.3431213 0 0 Z " fill="#1F97A8" transform="translate(283,119)"/>
<path d="M0 0 C0.33 0 0.66 0 1 0 C1 1.65 1 3.3 1 5 C1.99 5.33 2.98 5.66 4 6 C4 6.99 4 7.98 4 9 C4.66 9 5.32 9 6 9 C6 10.65 6 12.3 6 14 C5.01 14 4.02 14 3 14 C2.51801537 12.75108386 2.03954323 11.50081192 1.5625 10.25 C1.29566406 9.55390625 1.02882813 8.8578125 0.75390625 8.140625 C0.03212489 6.09121472 -0.60918585 4.13824753 -1 2 C-0.67 1.34 -0.34 0.68 0 0 Z " fill="#FBFDFB" transform="translate(309,363)"/>
<path d="M0 0 C0.66 1.32 1.32 2.64 2 4 C1.34 4 0.68 4 0 4 C-0.96087136 5.89454824 -1.91858969 7.79069581 -2.875 9.6875 C-3.40867187 10.74324219 -3.94234375 11.79898438 -4.4921875 12.88671875 C-5.78688105 15.55995905 -6.94023254 18.2271133 -8 21 C-8.66 21 -9.32 21 -10 21 C-8.51991304 15.99886406 -6.3681664 11.67084403 -3.875 7.125 C-3.50246094 6.43664062 -3.12992187 5.74828125 -2.74609375 5.0390625 C-1.83500474 3.35705202 -0.91809685 1.67819564 0 0 Z " fill="#2890A2" transform="translate(302,155)"/>
<path d="M0 0 C0.99 0.66 1.98 1.32 3 2 C1.38731308 4.71224618 -0.24901874 7.37352812 -2 10 C-2.66 10 -3.32 10 -4 10 C-4 10.99 -4 11.98 -4 13 C-4.66 13 -5.32 13 -6 13 C-4.58707905 8.1725201 -2.57025846 4.2837641 0 0 Z " fill="#148CA2" transform="translate(115,380)"/>
<path d="M0 0 C1.13388086 4.53552345 0.80277755 5.09120543 -1.3125 9 C-1.98732422 10.2684375 -1.98732422 10.2684375 -2.67578125 11.5625 C-3.11277344 12.366875 -3.54976563 13.17125 -4 14 C-4.67205564 15.33062521 -5.3407716 16.66297339 -6 18 C-6.99 17.67 -7.98 17.34 -9 17 C-6.03 11.39 -3.06 5.78 0 0 Z " fill="#1D96A9" transform="translate(280,250)"/>
<path d="M0 0 C0.66 0.33 1.32 0.66 2 1 C-0.31 5.62 -2.62 10.24 -5 15 C-5.82810826 11.68756695 -6.09278428 9.34023421 -6 6 C-5.34 6 -4.68 6 -4 6 C-3.67 5.34 -3.34 4.68 -3 4 C-2.34 4 -1.68 4 -1 4 C-0.67 2.68 -0.34 1.36 0 0 Z " fill="#D3F5F7" transform="translate(296,216)"/>
<path d="M0 0 C0.33 0.66 0.66 1.32 1 2 C0.37915039 3.69580078 0.37915039 3.69580078 -0.65234375 5.6953125 C-1.01650391 6.41074219 -1.38066406 7.12617188 -1.75585938 7.86328125 C-2.14580078 8.60964844 -2.53574219 9.35601562 -2.9375 10.125 C-3.32357422 10.87910156 -3.70964844 11.63320313 -4.10742188 12.41015625 C-5.06452132 14.27709097 -6.03136106 16.13902628 -7 18 C-8.20681069 14.05432816 -7.61287128 11.81995829 -6 8 C-5.34 7.67 -4.68 7.34 -4 7 C-3.34786708 4.97536745 -3.34786708 4.97536745 -3 3 C-2.34 3 -1.68 3 -1 3 C-0.67 2.01 -0.34 1.02 0 0 Z " fill="#1893A3" transform="translate(210,319)"/>
<path d="M0 0 C0.99 0.33 1.98 0.66 3 1 C4.1875 4.0625 4.1875 4.0625 5 7 C3.35 6.67 1.7 6.34 0 6 C-0.33 6.66 -0.66 7.32 -1 8 C-1.66 7.67 -2.32 7.34 -3 7 C-1.125 1.125 -1.125 1.125 0 0 Z " fill="#0D93AD" transform="translate(302,158)"/>
<path d="M0 0 C0.95397067 3.40394081 1.05552406 5.56954679 0 9 C-1.4375 10.8125 -1.4375 10.8125 -3 12 C-3.66 12 -4.32 12 -5 12 C-5.33 12.99 -5.66 13.98 -6 15 C-6.33 14.34 -6.66 13.68 -7 13 C-5.92325298 10.71741367 -4.80453884 8.5643566 -3.5625 6.375 C-3.22412109 5.76398438 -2.88574219 5.15296875 -2.53710938 4.5234375 C-1.69853808 3.011647 -0.85017423 1.50529601 0 0 Z " fill="#188D9E" transform="translate(164,285)"/>
<path d="M0 0 C3.68754757 0.49831724 5.60490662 1.10067643 8 4 C7.67 4.66 7.34 5.32 7 6 C6.34 6 5.68 6 5 6 C4.34 7.32 3.68 8.64 3 10 C2.87625 9.360625 2.7525 8.72125 2.625 8.0625 C2.315625 7.0415625 2.315625 7.0415625 2 6 C1.34 5.67 0.68 5.34 0 5 C0.99 5 1.98 5 3 5 C2.2236068 1.9254644 2.2236068 1.9254644 0 0 Z " fill="#DBF9FB" transform="translate(269,356)"/>
<path d="M0 0 C2.96052484 3.36423277 3.92289822 6.69159287 5 11 C3.68 11.33 2.36 11.66 1 12 C1.33 10.68 1.66 9.36 2 8 C0.68 7.67 -0.64 7.34 -2 7 C-1.34 4.69 -0.68 2.38 0 0 Z " fill="#1B93A8" transform="translate(309,169)"/>
<path d="M0 0 C0.66 0.99 1.32 1.98 2 3 C2.66 2.67 3.32 2.34 4 2 C3.67 3.65 3.34 5.3 3 7 C1.02 7.33 -0.96 7.66 -3 8 C-1.125 2.25 -1.125 2.25 0 0 Z " fill="#0D92A8" transform="translate(234,149)"/>
<path d="M0 0 C0.66 0.99 1.32 1.98 2 3 C0.66666667 5.66666667 -0.66666667 8.33333333 -2 11 C-2.99 11 -3.98 11 -5 11 C-3.77472971 6.94718288 -2.30119506 3.55639236 0 0 Z " fill="#138FA4" transform="translate(240,138)"/>
<path d="M0 0 C0.33 0.66 0.66 1.32 1 2 C0.29296875 3.734375 0.29296875 3.734375 -0.8125 5.75 C-2.20192473 8.36230882 -3.17926659 10.57998013 -4.0625 13.4375 C-4.5265625 14.7059375 -4.5265625 14.7059375 -5 16 C-5.99 16.33 -6.98 16.66 -8 17 C-6.3341708 10.83643195 -3.12194714 5.51740344 0 0 Z " fill="#1D8B9D" transform="translate(176,262)"/>
<path d="M0 0 C3 1 3 1 4.1328125 3.109375 C4.46023438 3.98078125 4.78765625 4.8521875 5.125 5.75 C5.45757812 6.61109375 5.79015625 7.4721875 6.1328125 8.359375 C6.96617277 10.89699457 7.53680766 13.37209246 8 16 C5.35820725 12.80815657 3.85450983 9.58418661 2.3125 5.75 C1.87550781 4.67234375 1.43851562 3.5946875 0.98828125 2.484375 C0.66214844 1.66453125 0.33601563 0.8446875 0 0 Z " fill="#D4F8FA" transform="translate(307,368)"/>
<path d="M0 0 C0.578125 1.8515625 0.578125 1.8515625 1 4 C-0.25 6.375 -0.25 6.375 -2 9 C-3.0150089 10.99242489 -4.01873444 12.99074195 -5 15 C-5.66 15 -6.32 15 -7 15 C-5.45454854 9.52067211 -2.84456788 4.88570819 0 0 Z " fill="#CEF5F7" transform="translate(276,192)"/>
<path d="M0 0 C3.81538462 2.46153846 3.81538462 2.46153846 4.75 5.1875 C4.8325 5.785625 4.915 6.38375 5 7 C2.03 6.505 2.03 6.505 -1 6 C-1 2 -1 2 0 0 Z " fill="#0A92A6" transform="translate(257,105)"/>
<path d="M0 0 C3 2 3 2 3.625 3.91015625 C3.87544037 5.3475796 4.12543884 6.78508 4.375 8.22265625 C4.684375 9.10244141 4.684375 9.10244141 5 10 C5.99 10.33 6.98 10.66 8 11 C7.01 11.66 6.02 12.32 5 13 C4.15615325 11.58957044 3.32530504 10.17135868 2.5 8.75 C2.0359375 7.96109375 1.571875 7.1721875 1.09375 6.359375 C0 4 0 4 0 0 Z " fill="#3693A3" transform="translate(412,381)"/>
<path d="M0 0 C4 2 4 2 5.8125 5.375 C7 9 7 9 6 13 C4.02 8.71 2.04 4.42 0 0 Z " fill="#1C96A8" transform="translate(278,363)"/>
<path d="M0 0 C2.11386464 2.11386464 2.97008322 3.79267603 4.1875 6.5 C4.55230469 7.2940625 4.91710937 8.088125 5.29296875 8.90625 C5.52628906 9.5971875 5.75960938 10.288125 6 11 C5.67 11.66 5.34 12.32 5 13 C4.01 12.34 3.02 11.68 2 11 C1.8125 8.375 1.8125 8.375 2 6 C1.34 6 0.68 6 0 6 C0 4.02 0 2.04 0 0 Z " fill="#118B9E" transform="translate(387,330)"/>
<path d="M0 0 C0.84119973 2.39957614 1.11193544 3.64922558 0.328125 6.10546875 C-0.02765625 6.79253906 -0.3834375 7.47960937 -0.75 8.1875 C-1.26820313 9.22970703 -1.26820313 9.22970703 -1.796875 10.29296875 C-3 12 -3 12 -6 13 C-4.31326082 8.50202887 -2.18326108 4.27113698 0 0 Z " fill="#1A90A1" transform="translate(148,316)"/>
<path d="M0 0 C1.56073255 2.34109882 2.86373867 4.56333403 4.125 7.0625 C4.47820312 7.75472656 4.83140625 8.44695312 5.1953125 9.16015625 C6 11 6 11 6 13 C5.01 13 4.02 13 3 13 C2.67 10.69 2.34 8.38 2 6 C1.34 6 0.68 6 0 6 C0 4.02 0 2.04 0 0 Z " fill="#2499AB" transform="translate(281,313)"/>
<path d="M0 0 C2.96659857 3.55991828 5.381348 7.65222543 7 12 C6.67 12.66 6.34 13.32 6 14 C5.731875 13.195625 5.46375 12.39125 5.1875 11.5625 C4.795625 10.716875 4.40375 9.87125 4 9 C3.01 8.67 2.02 8.34 1 8 C0.67 5.36 0.34 2.72 0 0 Z " fill="#125966" transform="translate(330,211)"/>
<path d="M0 0 C0.99 0.66 1.98 1.32 3 2 C3 2.66 3 3.32 3 4 C2.01 4.66 1.02 5.32 0 6 C-0.33 6.99 -0.66 7.98 -1 9 C-1.66 9 -2.32 9 -3 9 C-3 9.66 -3 10.32 -3 11 C-3.66 10.67 -4.32 10.34 -5 10 C-3.35 6.7 -1.7 3.4 0 0 Z " fill="#2198AE" transform="translate(304,203)"/>
<path d="M0 0 C0.625 1.8125 0.625 1.8125 1 4 C0.01 5.485 0.01 5.485 -1 7 C-1.309375 8.03125 -1.61875 9.0625 -1.9375 10.125 C-2.288125 11.07375 -2.63875 12.0225 -3 13 C-3.99 13.33 -4.98 13.66 -6 14 C-4.50829734 9.0276578 -2.39542583 4.58154261 0 0 Z " fill="#1C8CA1" transform="translate(207,201)"/>
<path d="M0 0 C1 3 1 3 0.29296875 4.90234375 C-0.25423828 5.90974609 -0.25423828 5.90974609 -0.8125 6.9375 C-1.16957031 7.60652344 -1.52664062 8.27554687 -1.89453125 8.96484375 C-2.25933594 9.63644531 -2.62414062 10.30804688 -3 11 C-3.67127626 12.33101856 -4.33931905 13.66369057 -5 15 C-5.66 15 -6.32 15 -7 15 C-5.63408831 11.45756548 -4.09068516 8.07372071 -2.375 4.6875 C-1.70597656 3.36298828 -1.70597656 3.36298828 -1.0234375 2.01171875 C-0.68570313 1.34785156 -0.34796875 0.68398438 0 0 Z " fill="#2D9BAE" transform="translate(237,282)"/>
<path d="M0 0 C2.52394612 3.12488567 4.39701907 6.31314387 6 10 C5.67 10.66 5.34 11.32 5 12 C4.34 12 3.68 12 3 12 C2.49166409 10.75336669 1.99368855 9.50250613 1.5 8.25 C1.2215625 7.55390625 0.943125 6.8578125 0.65625 6.140625 C0 4 0 4 0 0 Z " fill="#279AAE" transform="translate(326,410)"/>
<path d="M0 0 C0.99 0.33 1.98 0.66 3 1 C1.02 4.63 -0.96 8.26 -3 12 C-4.24546405 9.50907189 -3.7767578 8.58919267 -3 6 C-2.34 6 -1.68 6 -1 6 C-0.67 4.02 -0.34 2.04 0 0 Z " fill="#2095A9" transform="translate(228,281)"/>
<path d="M0 0 C0.33 0 0.66 0 1 0 C0.53680089 4.72463088 -0.09891706 8.17057052 -3 12 C-3.66 12 -4.32 12 -5 12 C-3.68938409 7.76570244 -2.05643741 3.92592596 0 0 Z " fill="#1990A4" transform="translate(182,250)"/>
<path d="M0 0 C0.33 0 0.66 0 1 0 C1.42820102 3.63970867 0.97413512 5.04569463 -0.875 8.3125 C-1.926875 9.6428125 -1.926875 9.6428125 -3 11 C-3.66 11 -4.32 11 -5 11 C-3.77782954 6.95743617 -2.37245704 3.50711041 0 0 Z " fill="#1A92A1" transform="translate(190,235)"/>
<path d="M0 0 C0.66 0.66 1.32 1.32 2 2 C1.67 2.66 1.34 3.32 1 4 C0.34 4 -0.32 4 -1 4 C-1.33 5.32 -1.66 6.64 -2 8 C-2.99 7.67 -3.98 7.34 -5 7 C-4.60196439 4.11424181 -4.20990931 3.17810487 -1.9375 1.25 C-1.298125 0.8375 -0.65875 0.425 0 0 Z " fill="#FCFDFE" transform="translate(268,214)"/>
<path d="M0 0 C0.66 0 1.32 0 2 0 C0.68938409 4.23429756 -0.94356259 8.07407404 -3 12 C-3.66 10.68 -4.32 9.36 -5 8 C-4.01 7.67 -3.02 7.34 -2 7 C-1.855625 6.030625 -1.71125 5.06125 -1.5625 4.0625 C-1 1 -1 1 0 0 Z " fill="#1593A1" transform="translate(269,201)"/>
<path d="M0 0 C2.15377564 2.62198774 3.40072174 4.64404172 4 8 C3.01 7.67 2.02 7.34 1 7 C0.67 4.69 0.34 2.38 0 0 Z M-3 6 C-2.34 6 -1.68 6 -1 6 C-0.67 6.99 -0.34 7.98 0 9 C-0.99 9.495 -0.99 9.495 -2 10 C-2.33 8.68 -2.66 7.36 -3 6 Z " fill="#D7F7FA" transform="translate(280,368)"/>
<path d="M0 0 C1.46726798 3.81489674 0.43336419 6.29011622 -1 10 C-1.99 10 -2.98 10 -4 10 C-2.8905928 6.51329166 -1.73662334 3.22515763 0 0 Z " fill="#1E99A7" transform="translate(245,266)"/>
<path d="M0 0 C0.66 0.33 1.32 0.66 2 1 C0.68938409 5.23429756 -0.94356259 9.07407404 -3 13 C-4.25541557 9.23375329 -3.37061958 7.62811066 -2 4 C-1.34 4 -0.68 4 0 4 C0 2.68 0 1.36 0 0 Z " fill="#1C95AA" transform="translate(291,210)"/>
<path d="M0 0 C2.47859908 2.2008849 3.61210366 4.06372969 4.6875 7.1875 C4.93886719 7.90292969 5.19023437 8.61835938 5.44921875 9.35546875 C5.63097656 9.89816406 5.81273437 10.44085938 6 11 C5.34 11 4.68 11 4 11 C3.67 9.68 3.34 8.36 3 7 C2.34 7 1.68 7 1 7 C0.67 4.69 0.34 2.38 0 0 Z " fill="#2298AA" transform="translate(313,383)"/>
<path d="M0 0 C0.99 0.33 1.98 0.66 3 1 C3 2.98 3 4.96 3 7 C2.34 7 1.68 7 1 7 C1 6.34 1 5.68 1 5 C0.34 5 -0.32 5 -1 5 C-0.67 3.35 -0.34 1.7 0 0 Z " fill="#FCFDFD" transform="translate(298,341)"/>
<path d="M0 0 C2.15377564 2.62198774 3.40072174 4.64404172 4 8 C3.01 8.33 2.02 8.66 1 9 C-1.09230769 4.56923077 -1.09230769 4.56923077 -0.625 1.6875 C-0.41875 1.130625 -0.2125 0.57375 0 0 Z " fill="#0D8CA6" transform="translate(363,281)"/>
<path d="M0 0 C3 4 3 4 2.8125 7.125 C2 10 2 10 0 12 C0 8.04 0 4.08 0 0 Z " fill="#1A96A3" transform="translate(295,142)"/>
<path d="M0 0 C0.66 0 1.32 0 2 0 C2.99 2.97 3.98 5.94 5 9 C4.34 9 3.68 9 3 9 C2.67 8.01 2.34 7.02 2 6 C1.34 5.67 0.68 5.34 0 5 C0 3.35 0 1.7 0 0 Z " fill="#D8F7FA" transform="translate(310,363)"/>
<path d="M0 0 C-1.75 5.75 -1.75 5.75 -4 8 C-4.33 5.69 -4.66 3.38 -5 1 C-3 0 -3 0 0 0 Z " fill="#1292AD" transform="translate(279,238)"/>
<path d="M0 0 C2 2 2 2 2.125 4.625 C2.08375 5.40875 2.0425 6.1925 2 7 C0.68 7 -0.64 7 -2 7 C-1.125 1.125 -1.125 1.125 0 0 Z " fill="#0C93A7" transform="translate(410,377)"/>
<path d="M0 0 C0.33 0 0.66 0 1 0 C0.38461538 6.52307692 0.38461538 6.52307692 -1.5625 8.9375 C-2.036875 9.288125 -2.51125 9.63875 -3 10 C-3.33 9.34 -3.66 8.68 -4 8 C-3.22265625 6.0546875 -3.22265625 6.0546875 -2.0625 3.875 C-1.49208984 2.78832031 -1.49208984 2.78832031 -0.91015625 1.6796875 C-0.60980469 1.12539062 -0.30945313 0.57109375 0 0 Z " fill="#168A9C" transform="translate(262,95)"/>
<path d="M0 0 C0.99 0.33 1.98 0.66 3 1 C1.77263971 5.15414253 0.672336 7.43688534 -2 11 C-1.34 7.37 -0.68 3.74 0 0 Z " fill="#2A99AB" transform="translate(218,299)"/>
<path d="M0 0 C0.66 0.33 1.32 0.66 2 1 C0.02 5.455 0.02 5.455 -2 10 C-2.66 10 -3.32 10 -4 10 C-2.8905928 6.51329166 -1.73662334 3.22515763 0 0 Z " fill="#1A93A7" transform="translate(296,166)"/>
<path d="M0 0 C1.32 0.66 2.64 1.32 4 2 C3.34 3.32 2.68 4.64 2 6 C0.68 5.34 -0.64 4.68 -2 4 C-1.34 2.68 -0.68 1.36 0 0 Z " fill="#1A9BB5" transform="translate(251,254)"/>
<path d="M0 0 C0.66 0.33 1.32 0.66 2 1 C0.25 6.75 0.25 6.75 -2 9 C-2 6.36 -2 3.72 -2 1 C-1.34 0.67 -0.68 0.34 0 0 Z " fill="#1592A9" transform="translate(295,202)"/>
<path d="M0 0 C0.66 1.32 1.32 2.64 2 4 C0.02 4.66 -1.96 5.32 -4 6 C-3.67 4.68 -3.34 3.36 -3 2 C-2.01 2 -1.02 2 0 2 C0 1.34 0 0.68 0 0 Z " fill="#0B91A7" transform="translate(227,167)"/>
</svg>
